<?xml version="1.0" encoding="UTF-8" standalone="no"?>
<svg
   xmlns:dc="http://purl.org/dc/elements/1.1/"
   xmlns:cc="http://creativecommons.org/ns#"
   xmlns:rdf="http://www.w3.org/1999/02/22-rdf-syntax-ns#"
   xmlns:svg="http://www.w3.org/2000/svg"
   xmlns="http://www.w3.org/2000/svg"
   xmlns:sodipodi="http://sodipodi.sourceforge.net/DTD/sodipodi-0.dtd"
   xmlns:inkscape="http://www.inkscape.org/namespaces/inkscape"
   version="1.1"
   id="Camada_1"
   x="0px"
   y="0px"
   viewBox="0 0 170.08 85.04"
   style="enable-background:new 0 0 170.08 85.04;"
   xml:space="preserve"
   sodipodi:docname="logo-colorida.svg"
   inkscape:version="1.0.1 (0767f8302a, 2020-10-17)"><metadata
   id="metadata1019"><rdf:RDF><cc:Work
       rdf:about=""><dc:format>image/svg+xml</dc:format><dc:type
         rdf:resource="http://purl.org/dc/dcmitype/StillImage" /><dc:title></dc:title></cc:Work></rdf:RDF></metadata><defs
   id="defs1017" /><sodipodi:namedview
   pagecolor="#ffffff"
   bordercolor="#666666"
   borderopacity="1"
   objecttolerance="10"
   gridtolerance="10"
   guidetolerance="10"
   inkscape:pageopacity="0"
   inkscape:pageshadow="2"
   inkscape:window-width="3072"
   inkscape:window-height="1666"
   id="namedview1015"
   showgrid="false"
   inkscape:zoom="5.0293639"
   inkscape:cx="121.02788"
   inkscape:cy="54.340855"
   inkscape:window-x="0"
   inkscape:window-y="25"
   inkscape:window-maximized="1"
   inkscape:current-layer="g1012" />
<style
   type="text/css"
   id="style964">
	.st0{fill:#706F6F;}
	.st1{font-family:'Rubik-Regular';}
	.st2{font-size:4.6347px;}
	.st3{fill:#15B5CB;}
	.st4{fill:#5BBFEC;}
	.st5{fill:#109784;}
	.st6{fill:#0D779A;}
	.st7{fill:#00FFAA;}
	.st8{fill:#13B695;}
	.st9{fill:#660093;}
	.st10{fill:#3300C6;}
	.st11{fill:#0049FF;}
	.st12{fill:#662DAF;}
	.st13{fill:#0099DD;}
	.st14{fill:#3E009A;}
</style>
<g
   id="g1012">
	
	
	<g
   id="g1623"
   transform="matrix(0.91316482,0,0,0.91316482,-17.631397,-3.6413629)"
   style="stroke-width:1.09509"><g
     id="g984"
     style="fill:#4d4d4d;stroke-width:0.763856"
     transform="matrix(1.4336375,0,0,1.4336375,-9.4749799,-10.407301)">
		<path
   class="st0"
   d="m 76,34.37 c -1.02,-0.54 -2.18,-0.81 -3.47,-0.81 -1.19,0 -2.26,0.26 -3.23,0.78 -0.68,0.37 -1.26,0.83 -1.75,1.39 V 34.8 28.4 c 0,-0.33 -0.1,-0.59 -0.29,-0.78 -0.19,-0.19 -0.44,-0.29 -0.75,-0.29 -0.33,0 -0.59,0.1 -0.78,0.29 -0.19,0.19 -0.29,0.45 -0.29,0.78 v 6.4 6.73 6.13 c 0,0.31 0.1,0.56 0.29,0.75 0.19,0.19 0.45,0.29 0.78,0.29 0.31,0 0.56,-0.1 0.75,-0.29 0.19,-0.19 0.29,-0.44 0.29,-0.75 v -6.13 -1.97 c 0,-0.77 0.21,-1.45 0.63,-2.05 0.42,-0.6 0.99,-1.08 1.71,-1.42 0.72,-0.35 1.53,-0.52 2.42,-0.52 0.93,0 1.76,0.18 2.5,0.55 0.74,0.36 1.32,0.91 1.75,1.64 0.43,0.73 0.64,1.66 0.64,2.79 v 7.11 c 0,0.29 0.1,0.54 0.3,0.74 0.2,0.2 0.46,0.3 0.77,0.3 0.29,0 0.54,-0.1 0.74,-0.3 0.2,-0.2 0.3,-0.45 0.3,-0.74 v -7.11 c 0,-1.49 -0.3,-2.76 -0.89,-3.8 C 77.83,35.7 77.03,34.91 76,34.37 Z"
   id="path966"
   style="fill:#4d4d4d;stroke-width:0.763856" />
		<path
   class="st0"
   d="m 93.27,34.59 c -1.14,-0.67 -2.43,-1 -3.87,-1 -1.44,0 -2.73,0.33 -3.88,1 -1.15,0.67 -2.06,1.57 -2.72,2.72 -0.67,1.15 -1,2.45 -1,3.91 0,1.44 0.32,2.73 0.97,3.88 0.65,1.15 1.53,2.06 2.64,2.72 1.11,0.67 2.37,1 3.77,1 1.33,0 2.52,-0.31 3.57,-0.92 0.85,-0.5 1.56,-1.15 2.12,-1.94 v 1.68 c 0,0.31 0.1,0.56 0.3,0.75 0.2,0.19 0.46,0.29 0.77,0.29 0.31,0 0.56,-0.1 0.77,-0.29 0.2,-0.19 0.3,-0.44 0.3,-0.75 V 41.21 C 96.99,39.75 96.65,38.45 95.98,37.3 95.32,36.16 94.41,35.26 93.27,34.59 Z m -1.03,11.58 c -0.83,0.49 -1.77,0.74 -2.83,0.74 -1.04,0 -1.98,-0.25 -2.82,-0.74 -0.84,-0.49 -1.5,-1.17 -2,-2.04 -0.49,-0.87 -0.74,-1.84 -0.74,-2.91 0,-1.09 0.25,-2.07 0.74,-2.93 0.49,-0.86 1.16,-1.54 2,-2.04 0.84,-0.5 1.78,-0.75 2.82,-0.75 1.06,0 2,0.25 2.83,0.75 0.83,0.5 1.49,1.18 1.97,2.04 0.48,0.86 0.72,1.83 0.72,2.93 0,1.08 -0.24,2.05 -0.72,2.91 -0.49,0.87 -1.14,1.55 -1.97,2.04 z"
   id="path968"
   style="fill:#4d4d4d;stroke-width:0.763856" />
		<path
   class="st0"
   d="m 111.34,34.59 c -1.11,-0.67 -2.37,-1 -3.77,-1 -1.22,0 -2.33,0.26 -3.32,0.78 -0.99,0.52 -1.79,1.21 -2.39,2.06 V 28.4 c 0,-0.33 -0.1,-0.59 -0.29,-0.78 -0.19,-0.19 -0.44,-0.29 -0.75,-0.29 -0.33,0 -0.59,0.1 -0.78,0.29 -0.19,0.19 -0.29,0.45 -0.29,0.78 v 12.9 c 0.02,1.42 0.36,2.7 1.03,3.84 0.67,1.14 1.57,2.04 2.71,2.69 1.14,0.66 2.42,0.98 3.84,0.98 1.46,0 2.76,-0.33 3.91,-1 1.15,-0.67 2.06,-1.57 2.72,-2.72 0.67,-1.15 1,-2.45 1,-3.91 0,-1.44 -0.32,-2.73 -0.97,-3.88 -0.66,-1.14 -1.54,-2.04 -2.65,-2.71 z m 0.81,9.53 c -0.48,0.86 -1.14,1.54 -1.98,2.04 -0.84,0.5 -1.79,0.75 -2.84,0.75 -1.04,0 -1.98,-0.25 -2.82,-0.75 -0.84,-0.5 -1.5,-1.18 -1.97,-2.04 -0.47,-0.86 -0.71,-1.83 -0.71,-2.93 0,-1.08 0.24,-2.05 0.71,-2.91 0.47,-0.87 1.13,-1.55 1.97,-2.04 0.84,-0.49 1.78,-0.74 2.82,-0.74 1.06,0 2.01,0.25 2.84,0.74 0.84,0.49 1.5,1.17 1.98,2.04 0.48,0.87 0.72,1.84 0.72,2.91 0,1.1 -0.24,2.07 -0.72,2.93 z"
   id="path970"
   style="fill:#4d4d4d;stroke-width:0.763856" />
		<path
   class="st0"
   d="m 119.21,33.73 c -0.33,0 -0.59,0.1 -0.78,0.29 -0.19,0.19 -0.29,0.45 -0.29,0.78 v 12.83 c 0,0.33 0.1,0.59 0.29,0.78 0.19,0.19 0.45,0.29 0.78,0.29 0.31,0 0.56,-0.1 0.75,-0.29 0.19,-0.19 0.29,-0.45 0.29,-0.78 V 34.8 c 0,-0.33 -0.1,-0.59 -0.29,-0.78 -0.19,-0.19 -0.44,-0.29 -0.75,-0.29 z"
   id="path972"
   style="fill:#4d4d4d;stroke-width:0.763856" />
		<path
   class="st0"
   d="m 119.21,27.9 c -0.4,0 -0.75,0.13 -1.05,0.4 -0.3,0.26 -0.45,0.62 -0.45,1.08 0,0.42 0.15,0.78 0.44,1.07 0.29,0.29 0.64,0.44 1.04,0.44 0.42,0 0.77,-0.15 1.07,-0.44 0.29,-0.29 0.44,-0.65 0.44,-1.07 0,-0.46 -0.15,-0.82 -0.45,-1.08 -0.31,-0.26 -0.65,-0.4 -1.04,-0.4 z"
   id="path974"
   style="fill:#4d4d4d;stroke-width:0.763856" />
		<path
   class="st0"
   d="m 128.16,46.61 h -0.68 c -0.49,0 -0.9,-0.25 -1.22,-0.74 -0.32,-0.49 -0.48,-1.13 -0.48,-1.91 V 28.37 c 0,-0.31 -0.1,-0.56 -0.29,-0.75 -0.19,-0.19 -0.44,-0.29 -0.75,-0.29 -0.31,0 -0.56,0.1 -0.75,0.29 -0.19,0.19 -0.29,0.44 -0.29,0.75 v 15.59 c 0,0.93 0.16,1.75 0.48,2.46 0.32,0.71 0.77,1.27 1.34,1.67 0.57,0.4 1.23,0.6 1.96,0.6 h 0.36 c 0.36,0 0.66,-0.1 0.89,-0.29 0.23,-0.19 0.34,-0.44 0.34,-0.75 0,-0.31 -0.08,-0.56 -0.25,-0.75 -0.17,-0.19 -0.39,-0.29 -0.66,-0.29 z"
   id="path976"
   style="fill:#4d4d4d;stroke-width:0.763856" />
		<path
   class="st0"
   d="m 132.1,33.73 c -0.33,0 -0.59,0.1 -0.78,0.29 -0.19,0.19 -0.29,0.45 -0.29,0.78 v 12.83 c 0,0.33 0.1,0.59 0.29,0.78 0.19,0.19 0.45,0.29 0.78,0.29 0.31,0 0.56,-0.1 0.75,-0.29 0.19,-0.19 0.29,-0.45 0.29,-0.78 V 34.8 c 0,-0.33 -0.1,-0.59 -0.29,-0.78 -0.19,-0.19 -0.44,-0.29 -0.75,-0.29 z"
   id="path978"
   style="fill:#4d4d4d;stroke-width:0.763856" />
		<path
   class="st0"
   d="m 132.1,27.9 c -0.4,0 -0.75,0.13 -1.05,0.4 -0.3,0.26 -0.45,0.62 -0.45,1.08 0,0.42 0.15,0.78 0.44,1.07 0.29,0.29 0.64,0.44 1.04,0.44 0.42,0 0.77,-0.15 1.07,-0.44 0.29,-0.29 0.44,-0.65 0.44,-1.07 0,-0.46 -0.15,-0.82 -0.45,-1.08 -0.32,-0.26 -0.66,-0.4 -1.04,-0.4 z"
   id="path980"
   style="fill:#4d4d4d;stroke-width:0.763856" />
		<path
   class="st0"
   d="m 147.72,42.63 c -0.34,-0.57 -0.9,-1.08 -1.7,-1.5 -0.79,-0.43 -1.87,-0.75 -3.24,-0.97 -1,-0.16 -1.78,-0.36 -2.34,-0.6 -0.56,-0.24 -0.95,-0.51 -1.18,-0.82 -0.23,-0.31 -0.34,-0.67 -0.34,-1.09 0,-0.62 0.3,-1.14 0.9,-1.55 0.6,-0.41 1.4,-0.62 2.41,-0.62 0.78,0 1.48,0.12 2.08,0.37 0.6,0.25 1.13,0.63 1.59,1.16 0.2,0.22 0.44,0.35 0.72,0.4 0.28,0.05 0.53,0 0.75,-0.12 0.26,-0.16 0.4,-0.37 0.44,-0.63 0.04,-0.26 -0.04,-0.5 -0.22,-0.74 -0.55,-0.71 -1.26,-1.28 -2.15,-1.7 -0.88,-0.42 -1.94,-0.63 -3.16,-0.63 -0.98,0 -1.89,0.16 -2.71,0.47 -0.82,0.31 -1.48,0.78 -1.97,1.39 -0.49,0.62 -0.74,1.39 -0.74,2.32 0,1 0.43,1.87 1.29,2.6 0.86,0.73 2.21,1.24 4.05,1.53 1.42,0.24 2.44,0.57 3.06,1 0.62,0.43 0.93,0.97 0.93,1.63 -0.02,0.66 -0.33,1.22 -0.93,1.68 -0.6,0.47 -1.58,0.7 -2.93,0.7 -0.87,0 -1.67,-0.14 -2.39,-0.41 -0.72,-0.27 -1.3,-0.67 -1.74,-1.18 -0.18,-0.2 -0.41,-0.32 -0.68,-0.36 -0.27,-0.04 -0.54,0.04 -0.79,0.22 -0.24,0.2 -0.37,0.44 -0.41,0.71 -0.04,0.27 0.05,0.52 0.25,0.74 0.66,0.73 1.51,1.28 2.57,1.64 1.06,0.36 2.12,0.55 3.2,0.55 1.15,0 2.16,-0.18 3.05,-0.55 0.88,-0.36 1.58,-0.87 2.08,-1.52 0.5,-0.65 0.75,-1.4 0.75,-2.26 0.01,-0.66 -0.16,-1.28 -0.5,-1.86 z"
   id="path982"
   style="fill:#4d4d4d;stroke-width:0.763856" />
	</g><text
     class="st0 st1 st2"
     id="text986"
     style="fill:#4d4d4d;stroke-width:1.09509"
     x="84.355736"
     y="71.666298">SISTEMAS INTELIGENTES</text><g
     id="g1010"
     transform="matrix(1.4336375,0,0,1.4336375,-9.4749799,-10.407301)"
     style="stroke-width:0.763856">
		<path
   class="st3"
   d="m 33.85,36.35 -12,-6.17 12,-6.17 z"
   id="path988"
   style="stroke-width:0.763856" />
		<path
   class="st4"
   d="m 33.85,36.35 12,6.17 -12,6.17 z"
   id="path990"
   style="stroke-width:0.763856" />
		<path
   class="st5"
   d="m 33.85,48.69 -12,-6.17 12,-6.17 z"
   id="path992"
   style="stroke-width:0.763856" />
		<path
   class="st6"
   d="m 21.85,30.18 12,6.17 -12,6.17 z"
   id="path994"
   style="stroke-width:0.763856" />
		<path
   class="st7"
   d="m 33.85,61.04 -12,-6.17 12,-6.17 z"
   id="path996"
   style="stroke-width:0.763856" />
		<path
   class="st8"
   d="m 21.85,42.52 12,6.17 -12,6.17 z"
   id="path998"
   style="stroke-width:0.763856" />
		<path
   class="st9"
   d="m 45.85,48.69 12,6.17 -12,6.17 z"
   id="path1000"
   style="stroke-width:0.763856" />
		<path
   class="st10"
   d="m 45.85,36.35 12,6.17 -12,6.17 z"
   id="path1002"
   style="stroke-width:0.763856" />
		<path
   class="st11"
   d="m 57.84,42.52 -12,-6.17 12,-6.17 z"
   id="path1004"
   style="stroke-width:0.763856" />
		<path
   class="st12"
   d="m 57.84,54.86 -12,-6.17 12,-6.17 z"
   id="path1006"
   style="stroke-width:0.763856" />
		<path
   class="st13"
   d="m 45.85,24 12,6.17 -12,6.17 z"
   id="path1008"
   style="stroke-width:0.763856" />
	</g></g>
</g>
</svg>
