<?xml version="1.0" encoding="UTF-8"?>
<!DOCTYPE svg PUBLIC "-//W3C//DTD SVG 1.1//EN" "http://www.w3.org/Graphics/SVG/1.1/DTD/svg11.dtd">
<!-- Creator: CorelDRAW 2021 (64 Bit) -->
<svg xmlns="http://www.w3.org/2000/svg" xml:space="preserve" width="91.44mm" height="34.2901mm" version="1.1" style="shape-rendering:geometricPrecision; text-rendering:geometricPrecision; image-rendering:optimizeQuality; fill-rule:evenodd; clip-rule:evenodd"
viewBox="0 0 9144 3429.01"
 xmlns:xlink="http://www.w3.org/1999/xlink"
 xmlns:xodm="http://www.corel.com/coreldraw/odm/2003">
 <defs>
  <style type="text/css">
   <![CDATA[
    .fil0 {fill:none}
    .fil2 {fill:#00FFAB}
    .fil1 {fill:#3D1198}
    .fil3 {fill:#00FFAB;fill-rule:nonzero}
    .fil4 {fill:#3D1198;fill-rule:nonzero}
   ]]>
  </style>
 </defs>
 <g id="Camada_x0020_1">
  <metadata id="CorelCorpID_0Corel-Layer"/>
  <g id="_2102586977696">
   <rect class="fil0" y="-0" width="9144" height="3429"/>
   <g>
    <path class="fil0" d="M7327.05 2481.94l-54.72 18.25 11.56 -56.47c-8.88,-11.91 -16.03,-25.42 -20.95,-40.3 -7.77,-23.53 -9.26,-48.64 -4.3,-72.92l44.65 -218.47c-41.56,-60.36 -75.2,-126.02 -99.83,-195.13 -32.46,-91.02 -48.89,-186.83 -48.89,-283.46 0,-139.23 34.01,-274.25 97.69,-394.61 -14.68,9.66 -30.4,17.67 -46.98,23.94 -27.92,10.54 -57.32,15.65 -87.14,15.65l-14.04 0c-25.67,0 -51.3,2.41 -76.47,7.55 -24.51,5.02 -48.39,12.68 -71.35,22.63 -23.64,10.26 -46.35,22.61 -67.66,37.1 -20.34,13.84 -39.4,29.52 -56.65,47.06 -17.63,17.94 -33.39,37.59 -47.24,58.55 -14.66,22.2 -27.02,45.97 -37.41,70.45 -10.04,23.62 -18.02,48.21 -22.88,73.42 -5.09,26.4 -7.33,53.32 -7.12,80.19l4.28 545.24c0.24,30 -4.78,59.65 -15.3,87.78 -11.12,29.72 -28.05,56.33 -49.99,79.27l-1.82 1.85c-20.92,21.34 -45.82,38.81 -73.64,50.97 -29.14,12.75 -60.26,19.08 -92.06,19.27 -30.85,0.18 -61.28,-4.88 -90.15,-15.83l-2.28 -0.86 -9.45 -4.15c-24.65,-10.83 -47.03,-25.77 -67.18,-44.28l-1.04 -0.97c-24.13,-22.6 -43.02,-49.62 -55.89,-80.05 -3.33,-7.87 -6.21,-15.87 -8.67,-23.98 -29.01,25.54 -60.13,48.6 -92.87,69.25 -43.04,27.14 -88.81,49.66 -136.34,67.81 -47.89,18.29 -97.42,31.97 -147.89,40.9 -51.06,9.02 -102.83,13.41 -154.68,13.41l-1.9 0 -6.72 -0.3c-52.39,-0.35 -106.23,-5.35 -159.24,-15.48 -54.83,-10.49 -108.49,-26.22 -160.26,-47.14 -50.22,-20.3 -98.51,-45.12 -144.27,-74.13 -45.27,-28.69 -87.71,-61.6 -126.77,-98.3 -39.31,-36.93 -74.94,-77.64 -106.11,-121.68 -31.46,-44.45 -58.37,-91.97 -80.79,-141.59 -22.37,-49.47 -39.41,-101.07 -51.21,-154.05l3.09 396.49c0.23,30.44 -4.86,60.42 -15.66,88.89l-0.53 1.38 -2.02 4.89c-11.15,26.77 -27.01,50.95 -47.08,71.91l-1.79 1.82c-22.12,22.57 -48.53,40.69 -78.22,52.85 -29.07,11.9 -59.92,17.63 -91.31,17.63l-2.55 0 -11.21 -0.6c-26.39,-1.43 -52.23,-6.93 -76.75,-16.82l-2.73 -1.1 -13.27 -6.35c-21.32,-10.51 -40.88,-24.1 -58.73,-40.49l-1.03 -0.97c-24.14,-22.6 -43.06,-49.64 -55.92,-80.08 -12.32,-29.17 -18.66,-60.2 -18.9,-91.88l-4.81 -618.11c-0.19,-25.08 -2.35,-50.15 -6.8,-74.84 -4.1,-22.69 -10.18,-45.02 -18.33,-66.6 -7.81,-20.63 -17.21,-40.69 -28.56,-59.61 -10.25,-17.09 -21.99,-33.3 -35.39,-48.06 -13.13,-14.48 -27.81,-27.55 -43.57,-39.13 -16.28,-11.96 -33.69,-22.37 -51.99,-30.94 -17.18,-8.06 -35.47,-13.76 -54.03,-17.69 -21.47,-4.53 -43.43,-6.54 -65.38,-6.54 -22.4,0 -44.92,1.84 -66.9,6.28 -16.36,3.3 -32.45,7.97 -47.94,14.19l-9.24 4.09c-18.78,8.32 -36.79,18.38 -53.57,30.24 -16.21,11.48 -31.29,24.52 -44.84,39.05l-1.69 1.76c-13.17,14.06 -25.66,30.25 -36.47,47.59 -11.71,18.81 -21.7,38.61 -29.76,59.24 -8.17,20.93 -13.97,42.78 -17.86,64.89l-0.25 1.49 -0.96 4.6c-3.63,22.28 -5.03,44.96 -4.85,67.52l4.82 619.5c0.22,28.19 -4.1,56.18 -13.21,82.88 -9.95,29.16 -25.36,55.63 -45.68,78.8l-1.15 1.31 -4.79 5.08c-22.09,23.39 -48.61,41.5 -78.39,53.68 -29.29,11.98 -60.38,17.62 -92,17.62l-2.54 0 -11.23 -0.6c-25.87,-1.4 -51.29,-6.77 -75.4,-16.27 -28.27,-11.13 -53.81,-27.65 -76.15,-48.16 -23.76,-21.8 -42.83,-47.7 -56.15,-77.05 -13.79,-30.39 -20.73,-62.84 -21,-96.21l-3.07 -393.03c-10,6.18 -20.55,11.6 -31.55,16.17l-2.2 0.91 -12.27 4.37c-25.09,8.55 -51.34,12.78 -77.85,12.78l-276.9 0 329.56 298.7 -68.92 70.11c-27.58,28.05 -57.15,54.14 -88.49,77.91 -43.49,33 -90.05,61.75 -138.73,86.45 -54.89,27.84 -113.18,48 -173.27,61.13 -61.78,13.52 -124.94,19.61 -188.15,19.61l-1.97 0 -6.78 -0.31c-52.99,-0.39 -107.49,-5.7 -161.01,-16.59 -55.29,-11.23 -109.16,-28.2 -160.95,-50.57 -49.78,-21.5 -97.5,-47.48 -142.58,-77.64 -45.01,-30.11 -87.09,-64.42 -125.69,-102.42l-1.51 -1.49 -0.66 -0.76c-10.2,-10.17 -20.22,-20.7 -30.03,-31.53 0.87,9.06 1.22,18.17 1.05,27.3 -0.59,31.62 -7.29,62.5 -19.71,90.3l-0.38 0.93c-12.76,29.09 -31.39,54.82 -54.67,76.43l-5.06 4.48c-19.46,17.61 -42.3,31.93 -67.24,42.15 -28.63,11.72 -59.03,17.27 -89.92,17.27l-2.63 0 -11.62 -0.65c-25.8,-1.45 -50.97,-7.18 -74.88,-16.9 -28.82,-11.74 -54.67,-29 -76.72,-50.94l-734.14 -730.86 -102.33 94.48 3.69 470.85 -0.55 11.74c-1.18,25.64 -6.41,50.82 -15.69,74.75 -11.17,28.8 -27.86,54.84 -49.18,77.21 -22.02,23.12 -48.08,41.74 -77.48,54.33l-2.14 0.91 -11.59 4.28c-11.92,4.22 -24.12,7.42 -36.48,9.62l-3.99 3.99 -39.1 0c-31.65,0 -62.62,-6.09 -91.82,-18.29 -28.56,-11.93 -54.14,-29.4 -76.01,-51.28l-0.26 -0.26c-21.64,-21.63 -39.07,-46.7 -51.21,-74.78 -12.67,-29.29 -19.2,-60.34 -19.45,-92.25l-13.07 -1673.57c-0.25,-31.22 5.56,-62.01 17.24,-90.96 11.76,-29.2 29.19,-55.44 51.42,-77.73l3.46 -3.37c21.41,-20.59 46.15,-36.89 73.61,-48.22 28.79,-11.88 59.31,-17.66 90.46,-17.66l2.48 0 11.18 0.59c26.05,1.36 51.64,6.87 75.86,16.58 29.43,11.8 55.97,29.32 78.48,51.65 22.8,22.6 40.91,49.12 53.02,78.88l0.82 2.04 3.35 9.46c8.83,24.99 13.31,51.15 13.53,77.67l4.41 564.58 801.11 -741.02c19.94,-18.08 42.15,-32.47 66.59,-42.63 15.32,-6.37 31.14,-10.95 47.29,-13.83l3.97 -3.97 39.11 0c33.02,0 65.4,6.45 95.73,19.52l1.78 0.77 7.26 3.49c28.92,13.91 54.37,33.57 75.21,57.96l0.1 0.14c18.03,19.82 33.24,43.61 43.66,69.88 13.02,32.82 18.04,67.46 15.28,102.66l-0.13 1.54 -0.64 5.83c-3.08,27.64 -10.74,54.42 -22.94,79.42 -12.27,25.1 -28.78,47.81 -48.48,67.59l-1.45 1.47 -668.53 615.13 641.42 638.51c-1.68,-3.63 -3.34,-7.27 -4.98,-10.91 -23.37,-51.99 -41.25,-106.2 -53.12,-161.97 -11.92,-56.07 -17.91,-113.17 -18.41,-170.48l-0.01 -1.8 0.23 -7.21c0.01,-53.02 4.87,-107.36 15.29,-160.77 10.8,-55.32 27.3,-109.26 49.32,-161.13 21.17,-49.9 47.12,-97.62 77.3,-142.64 29.9,-44.62 63.88,-86.33 101.64,-124.53 37.89,-38.35 79.39,-72.87 124,-103.13 39.76,-26.96 81.82,-50.34 125.46,-70.38l0.67 -0.68 16.56 -7.15c51.82,-22.39 105.74,-39.35 161.07,-50.56 55.82,-11.32 112.63,-16.81 169.58,-16.81l1.9 0 6.78 0.3c52.91,0.4 107.21,5.63 160.59,16.29 55.52,11.07 109.66,27.97 161.68,50.27l0.39 0.17c49.86,21.37 97.58,47.4 142.64,77.6 44.83,30.04 86.81,64.14 125.18,102.1 38.5,38.06 73.3,79.63 103.97,124.25l2.53 3.84c29.27,42.92 54.96,89.39 76.55,137.71 2.11,4.74 4.19,9.5 6.21,14.27 3.05,-8.57 6.24,-17.1 9.6,-25.58 19.1,-48.3 42.74,-94.68 70.59,-138.53 27.52,-43.33 59.22,-83.87 94.76,-120.91 35.43,-36.94 74.22,-70.56 116.12,-99.96 42.12,-29.54 87.17,-54.7 134.09,-75.75 49.21,-22.07 100.54,-38.86 153.37,-49.79 40.45,-8.37 81.53,-13.25 122.77,-15.15l1.14 -1.13 39.1 0c110.02,0 217.35,20.96 317.6,66.76 46.62,21.31 91.36,46.75 133.01,76.67 14.1,10.12 27.83,20.73 41.19,31.79 9.52,-39.74 29.5,-76.81 58.4,-106.9 55.01,-57.27 131.75,-81.14 208.97,-81.63l-1.53 -194.46c-0.24,-31.42 5.36,-62.35 16.98,-91.54l0.7 -1.78 3.11 -6.97c11.68,-26.2 27.98,-49.75 48.16,-70.11l2.78 -2.71c21.91,-21.08 47.01,-37.84 75.1,-49.5 16.21,-6.74 32.96,-11.54 50.06,-14.46l3.88 -3.69 37.76 0c30.72,0 60.81,5.44 89.39,16.71l2.03 0.79 8.71 3.9c25.94,11.64 49.35,27.77 69.37,47.97l1.76 1.76c23.15,23.85 40.67,51.7 51.76,81.54 10.73,27.18 15.96,56.94 16.19,87.01l1.5 190.94 1201.1 -11.61 17.27 171.56 -1215.28 235.07 3.79 485.34c0.19,24.52 2.53,49.07 7.66,73.05 4.76,22.34 12.03,44.02 21.39,64.84 9.5,21.16 20.84,41.49 34.25,60.43 13.22,18.68 28.02,36.26 44.64,52.03 34.97,33.21 75.83,58.06 120.46,76.11 22.61,9.14 46.06,15.95 70.03,20.46l5.74 1.2c24.04,4.19 48.47,6.01 72.85,6.01l1.7 0 4.91 0.18c21.74,-0.35 43.45,-2.35 64.9,-5.81l1.55 -0.24 4.9 -0.63c18.47,-3.28 36.74,-7.89 54.44,-14.13 18.18,-6.4 35.61,-15.14 52.06,-25.14l1.44 -0.87 0.27 -0.11c17.69,-10.81 35.7,-24.18 52.58,-38.91 8.36,-7.82 17.27,-15.01 26.64,-21.58 11.23,-8.23 23.42,-15.2 35.88,-21.36l2.81 -1.38 2.89 -1.19c13.45,-5.57 26.58,-10.42 40.64,-14.29l1.91 -0.5c4.17,-1.05 8.36,-1.96 12.58,-2.76l4.05 -4.05 39.11 0c42.05,0 81.27,10.66 116.17,31.11l-1.62 -205.24c-0.45,-58.4 4.72,-116.87 15.95,-174.2l0.3 -1.56 1.45 -6.18c10.96,-53.62 27.64,-107.14 49.76,-158.5 22.03,-51.11 48.51,-100.19 79.32,-146.53 30.38,-45.67 64.92,-88.47 103.25,-127.7 38.59,-39.49 80.99,-75.1 126.48,-106.39 45.99,-31.64 94.86,-58.95 145.91,-81.53 53.15,-23.52 108.6,-41.25 165.54,-52.93 57.25,-11.74 115.53,-17.35 173.96,-17.35l14.04 0c29.38,0 58.41,4.82 86.15,14.49 33.84,11.77 63.92,30.83 88.84,56.56 22.63,23.39 39.82,50.8 51.13,81.3 10.12,27.31 15.22,55.94 15.41,85.07 0.1,16.65 -1.44,33.12 -4.67,49.27 15.62,-18.58 32.11,-36.55 49.43,-53.87 158.79,-158.8 372.45,-247.3 597.06,-247.3 224.6,0 438.26,88.5 597.05,247.3 158.8,158.79 247.3,372.44 247.3,597.05 0,224.62 -88.49,438.26 -247.3,597.07 -158.79,158.8 -372.45,247.3 -597.05,247.3 -64.95,0 -129.73,-7.47 -192.97,-22.28 -43.49,-10.19 -86.11,-23.82 -127.4,-40.76l-236.2 78.74c-39.88,13.29 -81.48,7.83 -115.31,-11.57zm-2518.13 -1230.74c5.82,13.02 11.31,26.2 16.46,39.5 15.88,41.01 28.55,83.17 37.86,126.11l-1.28 -164.29c-17.73,0.93 -35.47,0.56 -53.04,-1.32zm-1942.06 615.9l-571.14 0c11.58,14.66 24.47,28.31 38.17,40.99 15.97,14.75 33.15,28.27 51.57,39.84 18.94,11.91 38.94,22.08 59.71,30.41l4.25 1.8c18.47,7.2 38.99,12.78 59.73,16.67l1.46 0.28 4.4 0.96c21.45,3.69 43.26,5.29 65.02,5.29 26.69,0 53.34,-2.85 79.42,-8.49 12.72,-2.75 25.27,-6.35 37.6,-10.51 12.36,-4.18 24.5,-9.13 36.33,-14.62l1.39 -0.64 4.32 -1.84c10.11,-4.84 20.04,-10.1 29.66,-15.84 10.73,-6.41 21.07,-13.66 31.04,-21.21 8.46,-6.4 16.84,-13.27 24.38,-20.75l42.69 -42.34zm3.46 -458.03c-12.94,-17.08 -27.45,-32.87 -43.32,-47.29 -16.46,-14.95 -34.49,-28.22 -53.38,-39.95l-2.66 -1.71c-18.78,-11.53 -39.35,-21.96 -60.7,-30.57 -20.91,-8.43 -42.81,-14.43 -64.95,-18.57 -23.75,-4.45 -47.85,-6.83 -72.01,-6.83 -24.53,0 -48.99,2.2 -73.1,6.7 -22.14,4.14 -43.81,10.39 -64.67,18.85 -20.92,8.46 -41.34,18.59 -60.8,31.06l-0.18 0.11c-17.7,11.41 -34.75,24.87 -50.46,39.81l-0.46 0.44c-15.48,14.72 -29.73,30.7 -42.33,47.95l589.02 0zm5615.41 1350.14c3.88,-26.42 13.65,-51.41 29.32,-73.7 20.66,-29.42 49.38,-50.56 82.52,-64.01 31.23,-12.68 64.66,-17.72 98.23,-17.72 27.16,0 54.41,3.39 80.2,12.15 24,8.15 46.49,20.11 65.81,36.6 18.02,15.38 33.21,33.67 43.68,54.99 10.3,20.95 16.1,43.68 16.1,67.08 0,18.62 -4.12,36.59 -11.89,52.99 2.34,3.78 4.53,7.66 6.58,11.65 13.34,25.88 18.93,54.34 18.93,83.3 0,36.54 -9.9,71.35 -29.71,102.06 -20.28,31.48 -49.13,54.83 -83.11,70.23 -33.29,15.1 -69.4,21.17 -105.79,21.17 -43.27,0 -86.24,-8.25 -123.95,-30.24 -27.3,-15.93 -49.77,-37.84 -66.72,-64.49 -10.55,-16.6 -18.56,-34.4 -23.26,-53.11 -10.4,26.44 -25.1,50.74 -44.27,71.95 -23.01,25.46 -51.15,44.72 -82.99,57.54 -32.09,12.93 -66.26,18.35 -100.75,18.35 -34.77,0 -69.15,-5.7 -101.43,-18.88 -31.66,-12.95 -59.8,-32.05 -82.76,-57.45 -22.45,-24.85 -38.6,-53.99 -49.02,-85.75 -10.05,-30.68 -14.61,-62.66 -14.61,-94.9 0,-10.9 0.52,-21.75 1.6,-32.53 -15.8,11.49 -33.8,18.52 -52.82,21.73l0 134.78c0,34.51 -10.12,67.49 -33.9,93.22 -23.95,25.91 -56.73,39.78 -91.97,39.78 -35.45,0 -68.47,-13.96 -92.5,-40.09 -23.61,-25.66 -33.81,-58.53 -33.81,-92.91l0 -134.79c-23.01,-3.88 -44.5,-13.38 -62.36,-29.63 -3.68,-3.34 -7.11,-6.88 -10.29,-10.58l0 172.45c0,76.17 -50.03,135.55 -128.49,135.55 -16.17,0 -32.14,-2.57 -47.37,-8.05 -16.03,-5.78 -30.73,-14.67 -43.47,-25.99 -4,-3.55 -7.79,-7.3 -11.41,-11.21 -1.43,1.77 -2.94,3.52 -4.51,5.25 -23.62,25.93 -56.17,40 -91.22,40 -35.79,0 -69.01,-14.51 -92.62,-41.5 -10.4,-11.88 -18.04,-25.24 -23.2,-39.51 -6.49,16.75 -16.81,31.92 -30.6,44.4 -23.78,21.55 -54.15,31.38 -85.9,31.38l-172.18 0c-36.22,0 -70.85,-10.93 -96.82,-37.17 -19.85,-20.05 -30.78,-45.11 -34.72,-72 -2.67,27.22 -12.5,52.88 -31.15,73.83 -23.57,26.45 -56.5,40.57 -91.85,40.57 -21.09,0 -41.27,-5.16 -59.1,-14.97 -18.96,10.11 -40.27,14.97 -62.33,14.97 -21.74,0 -42.9,-4.9 -61.94,-15.14 -18.03,9.94 -38.48,15.14 -59.85,15.14 -34.75,0 -67.13,-13.91 -90.62,-39.63 -22.89,-25.07 -32.77,-57.13 -32.77,-90.61l0 -247.51c0,-42.29 16.42,-81.88 52.39,-106.05 24.26,-16.3 52.44,-23.17 81.43,-23.17l19.66 0c20.6,0 41.13,2.19 60.43,9.82 11.49,4.57 21.99,10.82 31.26,18.51 9.24,-7.69 19.71,-13.93 31.2,-18.49 19.32,-7.67 39.91,-9.84 60.53,-9.84l19.6 0c29,0 57.17,6.85 81.46,23.15 30.79,20.66 47.26,52.63 51.39,87.91 1.84,-13.83 5.55,-27.33 11.54,-40.15 12.21,-26.07 32.86,-46.57 59.08,-58.5 19.29,-8.77 40.07,-12.41 61.18,-12.41l167.3 0c31.93,0 62.45,9.63 86.31,31.5 16.3,14.94 27.65,33.67 33.47,54.3 0.92,-3.05 1.97,-6.08 3.14,-9.08l0.92 -2.28c10.15,-24.2 27.29,-44.31 49.33,-58.55 21.42,-13.82 45.97,-21.14 71.45,-21.14 18.72,0 37.12,3.57 54.16,11.43 14.48,6.67 27.6,15.87 38.74,27.27 2.27,2.34 4.47,4.74 6.59,7.22 1,-1.27 2.03,-2.53 3.09,-3.77 23.4,-27.37 56.75,-42.15 92.71,-42.15 35.84,0 69.23,14.41 92.78,41.54 7,8.05 12.7,16.77 17.21,25.97 6.58,-11.94 15.29,-22.79 25.99,-32.08 24.06,-20.89 54.2,-30.18 85.71,-30.18l201.61 0c32.62,0 63.69,9.65 88.13,31.94 17.76,16.2 29.76,36.78 35.29,59.44 5.67,-8 11.87,-15.66 18.63,-22.94 22.91,-24.69 50.81,-43.33 82.08,-55.77 31.52,-12.56 65.06,-17.92 98.89,-17.92 45.59,0 90.12,9.4 130.03,31.97 39.88,22.57 70.77,55.45 91.01,96.56 4.33,8.8 8.1,17.78 11.34,26.9zm-1305.53 19.68c-3.57,7.62 -7.98,14.86 -13.17,21.59 7.87,16.06 11.97,33.9 11.97,52.42 0,20.21 -4.87,39.69 -14.2,56.93 5.93,6.33 11.08,13.22 15.4,20.56l0 -151.5zm-1154.33 0.8l0 -43.12c0,-34.08 10.06,-66.67 33.29,-92.24 23.95,-26.37 56.99,-40.55 92.52,-40.55 35.25,0 68.12,13.71 92.17,39.54 23.89,25.65 34.21,58.7 34.21,93.25l0 246.43c0,34.38 -10.21,67.26 -33.82,92.91 -24.05,26.14 -57.08,40.09 -92.56,40.09 -35.51,0 -68.38,-14.25 -92.31,-40.53 -23.31,-25.59 -33.5,-58.3 -33.5,-92.47l0 -42.33c-5.04,19.86 -12.35,39.09 -22.21,57.11 -11.92,21.79 -27.28,41.33 -45.68,58.03 -15.43,14 -32.89,25.43 -51.83,34.06 -17.97,8.2 -36.91,13.84 -56.41,16.94 -17.7,2.82 -35.71,3.96 -53.62,3.96l-82.6 0c-26.19,0 -51.69,-5.01 -74.42,-18.56 -26.49,-15.79 -45.52,-40.5 -53.89,-70.19 -4.61,-16.32 -6.24,-33.32 -6.24,-50.23l0 -229.54c0,-36.01 10.91,-70.46 36.84,-96.39 25.94,-25.95 60.37,-36.83 96.4,-36.83l82.6 0c26.48,0 53.34,2.33 79.03,9 29.73,7.73 56.49,22.25 79.74,42.28 37.77,32.54 60.7,73.86 72.29,119.38zm-893.07 -84.86c0.93,-3.05 1.98,-6.08 3.15,-9.08l0.91 -2.28c10.15,-24.2 27.29,-44.31 49.34,-58.55 21.41,-13.82 45.96,-21.14 71.46,-21.14 18.7,0 37.11,3.58 54.14,11.43 14.5,6.67 27.59,15.87 38.74,27.27 2.27,2.34 4.47,4.74 6.59,7.22 1,-1.27 2.03,-2.53 3.09,-3.77 23.41,-27.37 56.76,-42.15 92.73,-42.15 35.83,0 69.22,14.42 92.77,41.54 21.73,25.03 30.98,56.44 30.98,89.13l0 246c0,76.17 -50.04,135.55 -128.49,135.55 -16.17,0 -32.14,-2.57 -47.38,-8.05 -16.03,-5.78 -30.73,-14.67 -43.47,-25.99 -4,-3.55 -7.79,-7.3 -11.4,-11.23 -1.44,1.78 -2.94,3.52 -4.49,5.22 -23.62,25.98 -56.18,40.05 -91.25,40.05 -35.79,0 -69,-14.51 -92.61,-41.5 -10.39,-11.88 -18.04,-25.23 -23.19,-39.51 -6.5,16.76 -16.84,31.94 -30.63,44.43 -23.79,21.54 -54.15,31.35 -85.88,31.35l-172.19 0c-36.23,0 -70.88,-10.95 -96.84,-37.2 -25.65,-25.93 -36.39,-60.22 -36.39,-96.04l0 -167.81c-3.05,3.4 -6.33,6.65 -9.82,9.74 -17.77,15.72 -38.96,24.94 -61.57,28.76l0 134.78c0,34.51 -10.14,67.51 -33.91,93.22 -23.96,25.91 -56.73,39.78 -91.97,39.78 -35.44,0 -68.47,-13.97 -92.49,-40.09 -23.61,-25.65 -33.83,-58.53 -33.83,-92.91l0 -134.79c-23,-3.88 -44.49,-13.38 -62.36,-29.63 -5.22,-4.75 -9.95,-9.88 -14.15,-15.33l48.55 119.92c9.07,21.68 16.73,45.16 16.73,69.44 0,32.97 -13.44,63.46 -36.7,86.71 -23.74,23.74 -55.1,36.68 -88.67,36.68 -19.25,0 -38.17,-4.12 -55.4,-12.84 -15.63,-7.89 -29.33,-18.95 -40.24,-32.67 -7.92,-9.95 -13.94,-20.88 -19.17,-32.39 -5.15,11.33 -11.11,22.32 -18.45,32.07 -22.89,30.38 -58,45.83 -95.67,45.83 -32.45,0 -62.76,-12.41 -86.25,-34.78 -24.41,-23.25 -38.46,-54.4 -38.46,-88.18 0,-14.05 2.23,-28 6.41,-41.41 2.69,-8.59 6.02,-17.07 9.32,-25.46l80 -203.08c2.72,-6.91 5.44,-13.84 8.15,-20.76 5.32,-13.61 11.79,-26.78 19.97,-38.89 11.87,-17.54 27.49,-31.91 45.92,-42.36 20.98,-11.89 44.42,-17.3 68.43,-17.3 24.12,0 47.63,5.35 68.71,17.3 18.04,10.23 33.45,24.17 45.26,41.2 7.59,10.92 13.91,22.66 18.96,34.95 3.62,8.84 7.09,17.75 10.06,25.65l8.73 21.57c-0.57,-4.86 -0.86,-9.76 -0.86,-14.72 0,-35 14.29,-67.55 40.75,-90.52 24.07,-20.89 54.21,-30.18 85.71,-30.18l201.63 0c32.58,0 63.65,9.65 88.07,31.9 10.33,9.42 18.72,20.31 25.02,32.23 12.45,-22.84 31.73,-40.83 55.61,-51.71 19.3,-8.78 40.1,-12.42 61.21,-12.42l167.31 0c31.92,0 62.45,9.65 86.31,31.5 16.29,14.94 27.64,33.67 33.46,54.3zm-6.7 84.06c-3.57,7.61 -7.96,14.85 -13.16,21.58 7.87,16.06 11.98,33.91 11.98,52.43 0,20.21 -4.86,39.69 -14.21,56.93 5.93,6.33 11.07,13.21 15.39,20.53l0 -151.47zm-1727.16 -8.74l0 -27.9c0,-21.52 3.82,-42.72 12.98,-62.31 12.2,-26.06 32.85,-46.55 59.05,-58.49 19.3,-8.78 40.1,-12.42 61.21,-12.42l167.31 0c31.92,0 62.45,9.65 86.3,31.5 24.64,22.59 37.97,53.84 37.97,87.23 0,26.71 -8.43,52.05 -24.37,72.71 7.88,16.06 11.99,33.91 11.99,52.43 0,20.21 -4.88,39.69 -14.21,56.93 20.71,22.1 31.77,50.97 31.77,81.62 0,33.74 -13.64,65.27 -38.66,87.94 -23.79,21.55 -54.17,31.38 -85.92,31.38l-172.18 0c-36.23,0 -70.89,-10.95 -96.85,-37.2 -25.65,-25.93 -36.39,-60.22 -36.39,-96.04l0 -27.29c-4.85,16.47 -11.33,32.42 -19.59,47.54 -11.92,21.78 -27.27,41.31 -45.66,58.01 -15.42,14.01 -32.9,25.45 -51.84,34.08 -17.98,8.2 -36.93,13.84 -56.43,16.94 -17.7,2.82 -35.71,3.96 -53.62,3.96l-82.6 0c-26.2,0 -51.71,-5.01 -74.45,-18.58 -26.5,-15.8 -45.53,-40.54 -53.89,-70.23 -4.58,-16.32 -6.2,-33.28 -6.2,-50.17l0 -229.54c0,-36.01 10.89,-70.46 36.83,-96.39 25.94,-25.95 60.37,-36.83 96.4,-36.83l82.61 0c26.48,0 53.33,2.33 79.03,9 29.72,7.72 56.47,22.25 79.73,42.26 35.13,30.25 57.41,68.1 69.68,109.86zm-1035.25 107.69c-0.35,-6.25 -0.53,-12.53 -0.53,-18.82 0,-32.99 4.73,-65.65 15.49,-96.9 10.84,-31.47 27.38,-60.23 50.06,-84.67 22.91,-24.67 50.8,-43.31 82.06,-55.75 31.52,-12.56 65.06,-17.92 98.89,-17.92 45.59,0 90.12,9.4 130.04,31.97 39.88,22.57 70.77,55.45 91.01,96.56 19.55,39.7 27.64,83.09 27.64,127.14 0,32.44 -4.41,64.77 -14.63,95.63 -10.45,31.55 -26.71,60.38 -49.02,85.04 -23.01,25.45 -51.14,44.72 -82.98,57.53 -32.09,12.93 -66.25,18.35 -100.75,18.35 -34.76,0 -69.18,-5.7 -101.44,-18.89 -31.66,-12.94 -59.82,-32.05 -82.77,-57.46 -10.87,-12.04 -20.27,-25.1 -28.26,-38.96 -2,29.85 -15.08,57.3 -36.43,78.63 -23.74,23.75 -55.11,36.68 -88.68,36.68 -19.28,0 -38.21,-4.13 -55.46,-12.86 -15.61,-7.91 -29.28,-18.95 -40.19,-32.65 -7.91,-9.95 -13.94,-20.88 -19.17,-32.39 -5.14,11.33 -11.1,22.32 -18.44,32.07 -22.9,30.4 -58,45.83 -95.67,45.83 -32.43,0 -62.73,-12.4 -86.23,-34.75 -24.42,-23.26 -38.48,-54.42 -38.48,-88.21 0,-14.05 2.23,-28 6.41,-41.41 2.69,-8.59 6.02,-17.07 9.32,-25.46l72.59 -184.29c-0.16,-0.19 -0.32,-0.39 -0.49,-0.58 -17.56,-20.65 -26.21,-46.48 -26.21,-73.42 0,-21.18 4.68,-41.83 13.73,-60.98 10.13,-21.41 25.39,-39.6 44.87,-53.05 21.23,-14.66 45.84,-22.61 71.65,-22.61 16.09,0 32.07,2.43 47.33,7.48 14.54,-7.92 31.23,-12.37 49.32,-12.37 32.15,0 61.89,14.62 82.04,39.63 16.39,20.34 24.53,45.39 24.53,71.39 0,25.17 -7.45,48.96 -19.61,70.68 2.03,5.15 3.96,10.17 5.71,14.83l62.75 154.96zm-840.61 -185.7c6.48,-20.25 18.31,-38.48 34.95,-52.93 24.07,-20.89 54.21,-30.18 85.71,-30.18l201.61 0c32.62,0 63.69,9.65 88.14,31.94 25.16,22.96 38.77,54.72 38.77,88.76 0,34.59 -14.11,66.81 -40.04,89.73 -17.77,15.72 -38.96,24.94 -61.57,28.76l0 134.78c0,34.51 -10.13,67.49 -33.9,93.22 -23.96,25.91 -56.73,39.78 -91.97,39.78 -35.45,0 -68.47,-13.96 -92.51,-40.09 -23.61,-25.66 -33.81,-58.53 -33.81,-92.91l0 -134.79c-23.01,-3.88 -44.49,-13.38 -62.36,-29.63 -4.43,-4.02 -8.49,-8.32 -12.19,-12.86 -1.95,7.54 -4.6,14.85 -7.94,21.87 2.33,3.78 4.53,7.66 6.58,11.65 13.34,25.88 18.93,54.34 18.93,83.3 0,36.54 -9.91,71.35 -29.71,102.06 -20.29,31.47 -49.14,54.83 -83.11,70.23 -33.28,15.1 -69.4,21.17 -105.79,21.17 -43.27,0 -86.24,-8.25 -123.95,-30.24 -27.31,-15.93 -49.79,-37.85 -66.74,-64.52 -0.91,-1.44 -1.8,-2.89 -2.68,-4.33 -5.1,23.89 -17.41,45.63 -36,62.48 -23.79,21.55 -54.17,31.38 -85.91,31.38l-172.19 0c-36.22,0 -70.84,-10.93 -96.81,-37.17 -21.35,-21.57 -32.38,-48.93 -35.48,-78.15 -0.25,0.78 -0.49,1.56 -0.75,2.33 -6.81,20.66 -18.93,38.83 -35.08,53.41 -10.45,9.43 -22.13,17.4 -34.49,24.09 -23.78,12.86 -48.86,23.48 -74.99,30.5 -26.63,7.16 -54.15,10.22 -81.68,10.22 -33.71,0 -67.12,-5.21 -98.75,-17.02 -31.95,-11.94 -60.62,-30.07 -84.62,-54.33 -23.87,-24.12 -41.68,-52.84 -53.5,-84.61 -11.95,-32.13 -17.14,-65.94 -17.14,-100.15 0,-33.64 5.02,-66.95 16.39,-98.66 11.68,-32.54 29.69,-61.84 54.15,-86.3 24.27,-24.29 53.35,-42.21 85.51,-54.09 32.51,-12 66.82,-17.06 101.39,-17.06 29.43,0 58.85,3.98 86.74,13.64 25.19,8.71 49.09,21.04 69.52,38.29 18.22,15.4 33.8,33.47 45.12,54.54 11.67,21.73 18.89,45.28 18.89,70.1 0,14.03 -2.34,27.64 -6.83,40.43 3.75,6.7 6.78,13.68 9.18,20.86l0 -99.39c0,-21.49 3.82,-42.68 12.95,-62.24 12.19,-26.09 32.86,-46.61 59.08,-58.56 19.31,-8.78 40.09,-12.42 61.2,-12.42l167.31 0c31.93,0 62.45,9.63 86.32,31.5 20.72,18.99 33.45,44.13 36.96,71.51 4.26,-9.19 9.37,-18.07 15.34,-26.55 20.67,-29.4 49.38,-50.54 82.51,-63.99 31.23,-12.68 64.67,-17.72 98.24,-17.72 27.16,0 54.41,3.39 80.21,12.16 23.99,8.16 46.48,20.1 65.8,36.59 13.51,11.53 25.44,24.74 34.99,39.61zm-392.95 97.36c-2.28,3.79 -4.79,7.46 -7.51,10.98 7.87,16.06 11.98,33.9 11.98,52.42 0,20.21 -4.88,39.69 -14.21,56.93 1.59,1.69 3.12,3.43 4.59,5.2 2.37,-19.88 9.48,-38.65 20.86,-55.03 -10.21,-21.95 -15.23,-45.83 -15.71,-70.5z"/>
    <g>
     <path class="fil1" d="M2890.65 1976.47l213.22 193.26c-24.47,24.9 -50.59,47.91 -78.21,68.87 -37.9,28.74 -79.37,54.63 -124.39,77.47 -46.34,23.51 -96.62,41.29 -150.72,53.11 -52.91,11.59 -108.91,17.42 -167.98,17.42l-6.4 -0.27c-50.18,-0.4 -98.41,-5.33 -144.56,-14.73 -48.98,-9.94 -96.44,-24.93 -142.32,-44.73 -44.56,-19.27 -87.16,-42.42 -127.51,-69.43 -40.03,-26.76 -77.42,-57.25 -111.97,-91.25l-0.43 -0.47c-34.6,-34.56 -65.73,-71.84 -93.08,-111.67 -26.94,-39.3 -50.66,-81.62 -70.69,-126.74 -20.7,-45.53 -36.29,-93.21 -46.89,-142.93 -10.47,-49.34 -15.91,-99.89 -16.35,-151.64l0.2 -6.76c0.04,-50.09 4.59,-98.13 13.56,-144.12 9.59,-49.07 24.17,-96.51 43.56,-142.34 18.95,-44.53 41.98,-86.91 68.83,-126.97 26.65,-39.8 56.83,-76.71 90.35,-110.72 34.13,-34.43 70.75,-64.86 109.85,-91.34 39.03,-26.49 81.42,-49.64 126.92,-69.47l0.23 -0.23c45.9,-19.83 93.4,-34.8 142.36,-44.7 48.89,-9.93 99.22,-14.93 150.84,-14.93l6.4 0.27c49.72,0.39 97.86,5.23 144.39,14.5 49.06,9.8 96.8,24.63 142.97,44.46l0.39 0.17c44.51,19.07 86.98,42.21 127.29,69.26 39.89,26.69 77.07,57.05 111.34,90.79 34.6,34.36 65.47,71.22 92.55,110.62l1.77 2.71c26.17,38.37 49.22,79.76 68.9,123.86 20.61,46.09 36.15,93.43 46.45,141.81 10.49,49 15.9,99.16 16.34,150.25 0.2,18.4 -2.73,35.75 -8.62,52.01l-2.87 6.85c-6.12,14.44 -14.71,27.72 -25.82,39.83l-0.55 0.57c-13.34,14.43 -28.96,25.46 -46.46,32.74l-8.61 3.08c-14.99,5.1 -30.88,7.75 -47.46,7.75l-1045.29 0c7.28,24.43 16.98,48.77 29.04,72.84 12.91,25.82 27.5,49.63 43.62,71.25 15.85,21.19 34.21,41.45 54.96,60.62 20.83,19.27 42.68,36.16 65.41,50.46 23.49,14.77 48.47,27.55 74.83,38.11l3.82 1.62c24.14,9.44 50.19,16.82 77.89,22.02l4.97 1.09c26.5,4.7 54.3,7.05 83.31,7.05 33.47,0 66.77,-3.57 99.37,-10.63 15.78,-3.41 31.78,-7.91 47.88,-13.34 15.24,-5.16 30.6,-11.36 45.82,-18.41l4.76 -2.02c13.78,-6.52 26.89,-13.51 39.28,-20.89 12.57,-7.51 25.84,-16.52 39.62,-26.98 12.96,-9.77 24.3,-19.5 33.89,-29.01zm-2275.26 -647.64l957.6 -885.77c11.94,-10.82 24.98,-19.2 39.12,-25.09 16.57,-6.89 34.56,-10.33 53.86,-10.33l0.23 -0.24c20.79,0 40.31,4.04 58.37,11.82l5.5 2.65c17.01,8.28 31.93,19.77 44.34,34.2l1.05 1.23c11.67,12.85 20.66,26.92 26.72,42.28 7.58,19.04 10.59,39.13 8.92,60.46l-0.48 4.3c-1.83,16.99 -6.56,33.21 -13.96,48.44 -7.49,15.26 -17.71,29.53 -30.53,42.41l-739.61 680.52 787.23 783.66c14.22,14.14 25.17,29.83 32.63,46.95 8.17,18.34 12.05,38.11 11.66,58.93 -0.35,19.57 -4.48,37.82 -11.99,54.67l-0.17 0.4c-7.46,17.01 -18.39,32.11 -32.44,45.16l-3.62 3.17c-12.12,10.96 -25.55,19.37 -40.22,25.27 -16.54,6.88 -34.67,10.23 -54.14,10.23l-8.98 -0.5c-15.64,-0.96 -30.48,-4.3 -44.57,-10.1 -16.92,-6.82 -32.17,-17.02 -45.69,-30.39l-798.3 -794.72 -199.52 184.22 4 510.08 -0.43 9.2c-0.77,15.7 -3.86,30.73 -9.39,44.93 -6.55,16.92 -16.38,32.45 -29.53,46.26 -13.85,14.53 -29.42,25.42 -46.28,32.64l-8.02 2.98c-14.99,5.3 -31.01,7.98 -47.9,7.98l-0.22 0.23c-19.64,0 -38.08,-3.74 -55.4,-10.99 -16.75,-6.99 -32.03,-17.38 -45.67,-30.92l-0.27 -0.27c-13.57,-13.51 -24.07,-28.64 -31.32,-45.49 -7.57,-17.42 -11.48,-35.86 -11.68,-55.53l-13.07 -1673.56c-0.19,-19.17 3.41,-37.61 10.39,-54.92 7.01,-17.39 17.33,-32.95 30.73,-46.39l2.02 -1.95c13.02,-12.65 27.78,-22.35 44.18,-29.01 16.97,-7.12 35.16,-10.53 54.47,-10.53l8.71 0.47c16.02,0.89 31.32,4.17 45.67,9.93 17.48,6.99 33.35,17.38 47.14,31.06 14.3,14.17 24.98,30.06 32.04,47.41l2.61 7.38c5.26,15.13 7.94,30.83 8.12,46.95l6.09 778.23zm2405.5 174.65l-0.59 -2.62c-7.21,-25.29 -16.92,-50.12 -29.11,-74.46l-2.16 -4.63c-12.4,-24.41 -26.5,-47.12 -42.25,-68.11 -16.79,-22.35 -35.6,-42.94 -56.29,-61.75 -20.11,-18.24 -42.56,-35.06 -67.08,-50.29l-2.16 -1.39c-24.39,-15 -49.66,-27.75 -75.68,-38.24 -25.63,-10.33 -53.32,-18.28 -82.86,-23.81 -29.99,-5.63 -59.85,-8.44 -89.42,-8.44 -30.62,0 -60.8,2.75 -90.45,8.31 -28.63,5.33 -56.24,13.41 -82.76,24.14 -27.83,11.29 -53.18,24.27 -75.85,38.8l-0.27 0.17c-22.87,14.73 -44.55,31.81 -64.94,51.12l-0.46 0.43c-19.89,18.7 -38.02,39.33 -54.21,61.65 -16.11,22.18 -30.54,46.55 -43.13,72.77l-2.44 4.67c-10.76,23.37 -19.46,47.31 -25.84,71.68l887.95 0z"/>
     <path class="fil1" d="M5248.37 1649.95c0.28,32.28 3.57,62.98 9.75,92.02 6.12,28.6 15.35,56.57 27.59,83.82 12.36,27.52 26.85,52.97 43.32,76.29 17.25,24.33 36.11,46.31 56.7,65.95 42.34,40.1 92.45,71.85 150.07,95.16 28.22,11.39 57.55,20 87.98,25.72l5.01 1.09c28.91,5.16 59.3,7.75 91.02,7.75l5.54 0.2c26.72,-0.29 53.79,-2.65 80.97,-7.02l5.54 -0.7c25.28,-4.36 49.24,-10.55 71.72,-18.47 23.14,-8.15 46.44,-19.36 69.72,-33.51l0.28 -0.15c23.83,-14.51 46.68,-31.37 68.47,-50.54 5.54,-5.26 11.6,-10.19 18.23,-14.77 5.95,-4.46 13.58,-8.93 22.61,-13.4 10.24,-4.23 18.69,-7.49 29.53,-10.47 9.85,-2.48 20.7,-3.71 32.42,-3.71l0.24 -0.23c35.19,0 66.04,12.02 92.57,35.96l0.7 0.2c16.31,15.11 28.51,33.04 36.39,53.7 8.05,21 10.78,42.75 8.09,65.33l-1.46 8.47c-2.56,15.5 -7.12,30.03 -13.58,43.45l-4.15 7.44c-7.25,13.28 -16.28,25.19 -26.8,35.82l-1.38 1.37c-32.29,31.37 -67.26,58.8 -104.55,82.3 -36.91,23.28 -76.85,43.1 -119.67,59.47 -42.16,16.08 -85.79,28.17 -130.65,36.13 -45.24,7.97 -91.38,11.97 -138.24,11.97l-6.39 -0.26c-49.76,-0.36 -97.67,-5.03 -143.74,-13.84 -49.47,-9.46 -97.01,-23.5 -142.61,-41.94 -45,-18.18 -88.12,-40.36 -129.1,-66.33 -40.24,-25.52 -77.87,-54.66 -112.68,-87.37 -35.32,-33.17 -66.57,-69.09 -93.68,-107.41 -27.55,-38.93 -51.53,-81.01 -71.84,-125.95 -20.5,-45.35 -35.97,-92.72 -46.49,-142.1 -10.47,-49.03 -15.89,-99.36 -16.34,-150.91l-3.53 -450.22 288.41 -61.36 4.01 511.05zm-293.35 -568.38l-1.21 -155.47 288.89 0 0.74 94.11 -288.42 61.36zm-2.12 -271.96l-1.82 -231.37c-0.18,-19.63 3.31,-38.34 10.29,-55.88l2.33 -5.23c6.98,-15.59 16.64,-29.63 28.99,-42.08l1.16 -1.14c13.45,-13.07 28.66,-23.2 45.87,-30.35 17.15,-7.12 35.49,-10.69 55.25,-10.69l0.23 -0.23c19.23,0 37.46,3.3 54.77,10.13l6.72 3.01c15.31,6.91 29,16.39 40.99,28.3l1.38 1.4c13.64,14.04 24.11,30.65 31.01,49.2 6.5,16.49 9.74,34.62 9.93,53.97l1.8 230.96 -288.9 0zm-159.15 1415.94c0.2,19.2 -2.98,37.45 -9.51,54.66l-1.45 3.51c-6.53,15.9 -15.93,30.17 -28.11,42.89l-0.68 0.68c-13.81,14.08 -29.47,24.77 -46.91,31.89 -17.02,6.98 -35.54,10.6 -55.53,10.6l-8.66 -0.47c-16.65,-0.9 -32.13,-4.3 -46.54,-10.1l-9.54 -4.56c-13.13,-6.47 -25.19,-14.84 -36.3,-25.03l-0.7 -0.67c-14.66,-13.93 -25.87,-29.89 -33.47,-47.9 -7.42,-17.56 -11.26,-36.23 -11.46,-55.89l-4.81 -618.11c-0.28,-31.36 -3.04,-61.69 -8.32,-90.87 -5.19,-28.83 -12.87,-56.64 -22.92,-83.2 -10.15,-26.88 -22.14,-51.84 -35.91,-74.81 -13.87,-23.11 -29.37,-44.14 -46.41,-62.91 -17,-18.77 -36.31,-36.1 -57.6,-51.78 -21.29,-15.61 -43.97,-29.15 -67.84,-40.36 -23.05,-10.77 -48.04,-18.97 -74.58,-24.57 -27.08,-5.72 -55.42,-8.58 -84.89,-8.58 -30.1,0 -58.65,2.72 -85.58,8.14 -27.05,5.46 -52.65,13.58 -76.53,24.25l-0.22 0.26c-25.1,11.12 -48.46,24.37 -69.85,39.49 -21.79,15.44 -41.66,32.75 -59.38,51.75l-0.71 0.73c-17.99,19.2 -34.19,40.24 -48.5,63.07 -14.69,23.72 -27.27,48.64 -37.59,74.83 -9.99,25.82 -17.73,53.51 -22.89,82.87l-1.06 5.07c-4.56,27.18 -6.71,55.78 -6.43,85.63l4.82 619.49c0.17,18.21 -2.62,35.49 -8.14,51.65 -5.94,17.42 -15.06,33.07 -27.32,47.05l-3.6 3.82c-12.98,13.6 -28.18,24.05 -45.49,31.11 -17.02,6.98 -35.77,10.6 -56.26,10.6l-8.69 -0.47c-16.25,-0.9 -31.59,-4.2 -45.88,-9.83 -16.91,-6.66 -32.59,-16.73 -46.91,-29.86 -14.75,-13.54 -26.16,-29.04 -34.01,-46.52 -8.26,-18.01 -12.37,-37.32 -12.57,-57.94l-4.87 -623.24c-0.42,-48.82 3.71,-96.52 12.18,-142.97l1.13 -5.26c8.69,-45.9 21.27,-89.59 37.63,-130.99 16.91,-42.74 37.76,-83.7 62.5,-122.64 24.35,-38.37 52.13,-73.8 83.18,-106.17 31.79,-33.15 65.94,-62.54 102.21,-88.01 36.2,-25.36 75.76,-47.75 118.5,-66.9 43.48,-19.52 88.09,-34.02 133.85,-43.48 45.36,-9.37 93.32,-14.1 143.67,-14.1l0.23 -0.24c100.39,0 193.43,19.44 278.35,58.23 42.75,19.55 81.84,42.12 117.19,67.48 35.82,25.76 69.17,55.2 99.86,88.01 30.47,32.65 57.83,68.44 81.87,107.17 23.83,38.4 44.25,79.4 61.05,122.77 17.05,43.98 29.8,89.1 38.27,135.18 8.48,46.02 12.89,93.54 13.28,142.3l4.85 623.25z"/>
     <path class="fil1" d="M7104.1 1184.01c-32.78,0 -64.61,3.18 -95.38,9.47 -30.74,6.29 -60.77,15.86 -89.98,28.51 -29.52,12.81 -57.31,28.04 -83.22,45.65 -25.87,17.62 -49.58,37.28 -70.88,58.94 -21.8,22.18 -41.4,46.48 -58.69,72.7 -17.16,25.96 -32.37,54.6 -45.53,85.56 -12.91,30.39 -22.57,61.32 -28.69,92.47 -6.04,31.85 -9.09,64.83 -8.82,98.8l4.28 545.24c0.2,19.07 -2.99,37.11 -9.32,53.97 -6.57,17.61 -16.55,33.24 -29.79,47.08l-0.69 0.69c-13.05,13.31 -27.9,23.67 -44.36,30.89 -17.08,7.45 -35.37,11.33 -54.8,11.36 -20.2,0.2 -38.92,-3.18 -56.13,-9.7l-7.23 -3.18c-14.98,-6.66 -28.61,-15.73 -40.95,-27.05l-0.69 -0.66c-14.66,-13.94 -25.88,-29.9 -33.47,-47.91 -7.47,-17.62 -11.22,-36.29 -11.44,-55.89l-4.28 -545.24c-0.4,-53.2 4.34,-105.05 14.18,-155.31l1.34 -5.8c10,-48.83 24.74,-96.01 44.22,-141.24 19.95,-46.29 43.73,-90.22 71.24,-131.61 27.25,-40.95 58,-79.06 92.15,-113.99 34.26,-35.07 71.86,-66.65 112.46,-94.6 41.18,-28.3 84.83,-52.7 130.6,-72.97 46.96,-20.76 95.78,-36.38 146.32,-46.78 50.2,-10.26 101.89,-15.43 155,-15.43l14.04 0c19.3,0 37.74,3.08 55.1,9.24 20.11,6.88 37.49,18.04 52.05,33.07 13.58,14.04 23.68,30.23 30.44,48.44 6.26,16.92 9.4,34.57 9.52,52.88 0.12,19.6 -3.37,38.34 -10.72,56.05 -7.51,18.21 -18.62,34.34 -33.28,47.91 -13.59,12.58 -29.25,22.25 -46.79,28.87 -16.81,6.36 -34.8,9.57 -53.78,9.57l-14.03 0z"/>
     <path class="fil2" d="M4861.36 867.86l1590.34 -15.39 -1547.42 299.34c-276.04,58.75 -308.23,-283.95 -42.92,-283.95z"/>
     <path class="fil2" d="M8004.79 1107.2c286.34,0 518.45,232.11 518.45,518.45 0,286.34 -232.11,518.45 -518.45,518.45 -286.34,0 -518.45,-232.11 -518.45,-518.45 0,-286.34 232.11,-518.45 518.45,-518.45z"/>
     <path class="fil3" d="M7998.92 883.5c207.08,0 394.59,83.96 530.3,219.65 135.69,135.71 219.65,323.22 219.65,530.3 0,207.09 -83.96,394.58 -219.65,530.3 -135.71,135.68 -323.22,219.64 -530.3,219.64 -58.79,0 -116.22,-6.86 -171.44,-19.79 -50.34,-11.79 -98.66,-28.61 -144.4,-49.86l-270.57 90.19c-24.87,8.23 -51.71,-5.28 -59.93,-30.15 -2.7,-8.15 -3.05,-16.52 -1.44,-24.36l52.99 -259.25c-47.18,-61.36 -85.16,-130.41 -111.74,-204.98 -28.1,-78.79 -43.41,-163.56 -43.41,-251.74 0,-207.08 83.96,-394.59 219.64,-530.3 135.71,-135.69 323.21,-219.65 530.3,-219.65zm462.92 287.03c-118.46,-118.46 -282.15,-191.74 -462.92,-191.74 -180.78,0 -344.45,73.28 -462.92,191.74 -118.45,118.46 -191.74,282.15 -191.74,462.92 0,77.33 13.35,151.46 37.83,220.1 25.35,71.07 62.81,136.63 109.88,194.15 8.6,10.76 12.63,25.1 9.67,39.64l-41.01 200.54 207.12 -69.06c12.42,-5.31 26.98,-5.36 40.01,1.13 44.56,22.16 91.93,39.41 141.31,50.98 47.92,11.23 98.11,17.18 149.85,17.18 180.77,0 344.46,-73.29 462.92,-191.74 118.45,-118.47 191.74,-282.14 191.74,-462.92 0,-180.77 -73.29,-344.46 -191.74,-462.92z"/>
     <path class="fil1" d="M7998.92 931.14c387.88,0 702.3,314.43 702.3,702.31 0,387.87 -314.42,702.3 -702.3,702.3 -112.23,0 -218.28,-26.37 -312.38,-73.18l-131.73 43.91 -157.19 52.41 33.23 -162.32 24.27 -118.72c-99.06,-121.05 -158.5,-275.78 -158.5,-444.4 0,-387.88 314.42,-702.31 702.3,-702.31zm0 204.89c273.65,0 495.48,221.84 495.48,495.48 0,273.65 -221.83,495.48 -495.48,495.48 -273.64,0 -495.48,-221.83 -495.48,-495.48 0,-273.64 221.84,-495.48 495.48,-495.48z"/>
     <path class="fil1" d="M7778.6 1361.01l414.2 0c32.19,0 58.52,26.33 58.52,58.52l0 0.02c0,32.19 -26.33,58.51 -58.52,58.51l-414.2 0c-32.2,0 -58.52,-26.32 -58.52,-58.51l0 -0.02c0,-32.19 26.32,-58.52 58.52,-58.52zm0 423.18l414.2 0c32.19,0 58.52,26.32 58.52,58.52l0 0.01c0,32.19 -26.33,58.52 -58.52,58.52l-414.2 0c-32.2,0 -58.52,-26.33 -58.52,-58.52l0 -0.01c0,-32.2 26.32,-58.52 58.52,-58.52zm0 -211.59l414.2 0c32.19,0 58.52,26.33 58.52,58.52l0 0.01c0,32.2 -26.33,58.52 -58.52,58.52l-414.2 0c-32.2,0 -58.52,-26.32 -58.52,-58.52l0 -0.01c0,-32.19 26.32,-58.52 58.52,-58.52z"/>
     <path class="fil4" d="M635.02 2889.18l0 59.94c0,8.02 -0.8,14.36 -2.32,19.09 -1.61,4.8 -4.44,9.1 -8.68,12.89 -4.22,3.86 -9.61,7.58 -16.17,11.15 -18.85,10.19 -37.07,17.62 -54.56,22.36 -17.47,4.66 -36.56,6.98 -57.17,6.98 -24.03,0 -45.97,-3.71 -65.71,-11.06 -19.81,-7.43 -36.63,-18.14 -50.55,-32.28 -13.98,-14.05 -24.69,-31.1 -32.12,-51.13 -7.5,-20.1 -11.22,-42.45 -11.22,-67.23 0,-24.33 3.64,-46.55 10.86,-66.79 7.28,-20.18 17.92,-37.29 32.05,-51.43 14.06,-14.05 31.17,-24.83 51.42,-32.26 20.19,-7.51 43.05,-11.22 68.7,-11.22 21.04,0 39.69,2.84 55.86,8.44 16.24,5.62 29.44,12.69 39.48,21.21 10.13,8.52 17.71,17.55 22.88,27.1 5.09,9.53 7.64,17.98 7.64,25.41 0,7.94 -2.99,14.72 -8.88,20.32 -5.91,5.69 -12.97,8.45 -21.28,8.45 -4.51,0 -8.88,-1.02 -13.1,-3.19 -4.23,-2.12 -7.72,-5.11 -10.57,-8.9 -7.87,-12.24 -14.43,-21.48 -19.81,-27.75 -5.46,-6.19 -12.74,-11.51 -21.85,-15.74 -9.18,-4.29 -20.91,-6.4 -35.11,-6.4 -14.64,0 -27.75,2.54 -39.26,7.58 -11.51,5.02 -21.35,12.38 -29.5,21.99 -8.16,9.55 -14.42,21.35 -18.8,35.25 -4.3,14 -6.47,29.44 -6.47,46.33 0,36.71 8.44,64.9 25.27,84.71 16.82,19.74 40.35,29.65 70.43,29.65 14.65,0 28.41,-1.9 41.31,-5.76 12.82,-3.86 25.92,-9.32 39.1,-16.46l0 -50.77 -49.01 0c-11.8,0 -20.76,-1.74 -26.81,-5.31 -6.04,-3.57 -9.03,-9.61 -9.03,-18.22 0,-6.91 2.56,-12.74 7.58,-17.26 5.02,-4.58 11.87,-6.85 20.61,-6.85l71.89 0c8.82,0 16.31,0.8 22.44,2.34 6.12,1.6 11.07,5.09 14.79,10.49 3.79,5.39 5.67,13.55 5.67,24.33zm387.69 -136.8l-142.76 0 0 76.91 131.47 0c9.7,0 16.9,2.2 21.64,6.49 4.81,4.3 7.13,10.06 7.13,17.11 0,7.07 -2.32,12.91 -6.98,17.35 -4.75,4.44 -11.95,6.7 -21.79,6.7l-131.47 0 0 89.15 147.64 0c9.99,0 17.49,2.34 22.51,6.92 5.1,4.59 7.65,10.79 7.65,18.44 0,7.36 -2.55,13.39 -7.65,17.98 -5.02,4.59 -12.52,6.92 -22.51,6.92l-172.18 0c-13.78,0 -23.68,-3.06 -29.73,-9.17 -6.05,-6.12 -9.1,-16.02 -9.1,-29.65l0 -235.28c0,-9.1 1.38,-16.53 4.08,-22.28 2.69,-5.76 6.91,-9.98 12.67,-12.6 5.75,-2.62 13.11,-3.93 22.08,-3.93l167.3 0c10.14,0 17.62,2.25 22.52,6.69 4.87,4.52 7.35,10.42 7.35,17.64 0,7.43 -2.48,13.39 -7.35,17.91 -4.9,4.44 -12.38,6.7 -22.52,6.7zm444.36 170.15c0,18.87 -4.88,35.84 -14.65,50.92 -9.68,15.08 -23.96,26.88 -42.75,35.4 -18.79,8.52 -41.08,12.74 -66.8,12.74 -30.87,0 -56.37,-5.82 -76.4,-17.4 -14.21,-8.37 -25.71,-19.59 -34.6,-33.58 -8.89,-13.98 -13.33,-27.61 -13.33,-40.86 0,-7.65 2.7,-14.21 8.01,-19.74 5.32,-5.46 12.09,-8.16 20.32,-8.16 6.71,0 12.31,2.11 16.9,6.42 4.67,4.22 8.6,10.55 11.87,19 3.93,9.91 8.32,18.28 12.9,24.92 4.66,6.69 11.15,12.23 19.53,16.6 8.44,4.3 19.44,6.49 33.13,6.49 18.72,0 34.02,-4.38 45.75,-13.12 11.73,-8.74 17.62,-19.67 17.62,-32.78 0,-10.42 -3.13,-18.86 -9.46,-25.28 -6.35,-6.47 -14.57,-11.42 -24.62,-14.85 -9.98,-3.42 -23.45,-7.07 -40.22,-10.93 -22.42,-5.24 -41.29,-11.43 -56.37,-18.43 -15.15,-7.07 -27.17,-16.68 -36.05,-28.84 -8.89,-12.16 -13.34,-27.24 -13.34,-45.39 0,-17.18 4.67,-32.48 14.06,-45.88 9.39,-13.33 23.02,-23.6 40.79,-30.81 17.78,-7.21 38.68,-10.78 62.71,-10.78 19.16,0 35.77,2.41 49.83,7.14 13.99,4.8 25.63,11.14 34.89,19.01 9.18,7.87 15.95,16.17 20.25,24.83 4.22,8.67 6.42,17.2 6.42,25.43 0,7.51 -2.7,14.34 -8.02,20.4 -5.32,6.03 -12.03,9.02 -19.97,9.02 -7.27,0 -12.74,-1.81 -16.53,-5.38 -3.79,-3.64 -7.87,-9.62 -12.24,-17.85 -5.74,-11.8 -12.52,-21.05 -20.53,-27.68 -7.94,-6.63 -20.76,-9.9 -38.47,-9.9 -16.31,0 -29.56,3.57 -39.55,10.77 -10.04,7.21 -15.08,15.81 -15.08,25.94 0,6.27 1.69,11.65 5.11,16.24 3.41,4.51 8.16,8.45 14.12,11.73 5.98,3.28 12.02,5.83 18.15,7.72 6.11,1.81 16.24,4.51 30.29,8.08 17.63,4.15 33.66,8.67 47.94,13.7 14.27,4.95 26.43,10.99 36.49,18.13 10.04,7.07 17.84,16.1 23.45,26.95 5.6,10.93 8.45,24.26 8.45,40.06zm378.29 -166.65l-69.12 0 0 227.12c0,13.11 -2.92,22.79 -8.83,29.13 -5.82,6.34 -13.39,9.46 -22.64,9.46 -9.4,0 -17.13,-3.19 -23.02,-9.6 -5.91,-6.42 -8.88,-16.03 -8.88,-28.99l0 -227.12 -69.13 0c-10.86,0 -18.87,-2.41 -24.11,-7.14 -5.24,-4.8 -7.94,-11.15 -7.94,-19.01 0,-8.09 2.77,-14.49 8.23,-19.24 5.46,-4.73 13.4,-7.05 23.82,-7.05l201.62 0c11,0 19.08,2.4 24.48,7.27 5.31,4.89 8.01,11.22 8.01,19.02 0,7.86 -2.77,14.21 -8.17,19.01 -5.38,4.73 -13.47,7.14 -24.32,7.14zm391.33 225l-14.93 -39.26 -127.19 0 -14.92 40.06c-5.84,15.66 -10.79,26.23 -14.94,31.68 -4.08,5.48 -10.86,8.23 -20.25,8.23 -7.94,0 -15,-2.9 -21.13,-8.73 -6.11,-5.82 -9.17,-12.46 -9.17,-19.82 0,-4.29 0.72,-8.73 2.12,-13.25 1.45,-4.58 3.77,-10.85 7.05,-19.01l79.99 -203.09c2.32,-5.82 5.02,-12.81 8.23,-20.97 3.21,-8.23 6.62,-15.01 10.26,-20.39 3.64,-5.4 8.37,-9.77 14.28,-13.12 5.89,-3.34 13.18,-5.02 21.86,-5.02 8.88,0 16.24,1.68 22.13,5.02 5.91,3.35 10.64,7.65 14.29,12.9 3.64,5.24 6.69,10.93 9.17,16.97 2.48,6.05 5.69,14.14 9.48,24.18l81.71 201.84c6.42,15.37 9.63,26.51 9.63,33.51 0,7.21 -2.99,13.92 -9.05,19.96 -6.03,6.05 -13.39,9.02 -21.91,9.02 -4.95,0 -9.26,-0.87 -12.82,-2.68 -3.5,-1.76 -6.49,-4.15 -8.97,-7.21 -2.39,-3.07 -4.95,-7.8 -7.72,-14.07 -2.83,-6.33 -5.17,-11.94 -7.2,-16.75zm-125.43 -86.9l93.44 0 -47.13 -128.93 -46.31 128.93zm2.9 -236.58c-7.2,0 -12.16,4.88 -14.7,14.57 -2.56,8.38 -6.42,12.53 -11.51,12.53 -3.14,0 -5.98,-1.47 -8.45,-4.37 -2.48,-2.92 -3.72,-7 -3.72,-12.25 0,-7.13 1.53,-13.98 4.66,-20.61 3.14,-6.62 7.51,-11.87 13.18,-15.73 5.62,-3.94 11.59,-5.9 18,-5.9 6.4,0 12.38,0.95 17.84,2.76 5.47,1.83 12.76,4.89 21.93,9.12 9.17,4.15 15.52,6.85 18.94,8.08 3.35,1.16 7.13,1.81 11.29,1.81 4.15,0 7.35,-1.01 9.68,-3.12 2.34,-2.04 4.16,-5.76 5.46,-11.22 2.27,-8.22 6.13,-12.3 11.51,-12.3 3.28,0 6.13,1.45 8.52,4.44 2.41,2.97 3.64,7.05 3.64,12.16 0,7.94 -2.97,16.97 -9.02,27.03 -6.04,9.97 -15.45,14.99 -28.12,14.99 -4.8,0 -9.77,-0.8 -14.93,-2.47 -5.1,-1.61 -12.17,-4.44 -21.12,-8.37 -8.96,-4.01 -15.59,-6.85 -20.03,-8.61 -4.44,-1.67 -8.75,-2.54 -13.05,-2.54zm495.5 40.79c32.49,0 60.31,6.56 83.55,19.74 23.24,13.12 40.86,31.83 52.8,56.08 11.95,24.27 17.93,52.74 17.93,85.44 0,24.19 -3.28,46.19 -9.84,65.93 -6.55,19.81 -16.32,36.92 -29.42,51.42 -13.11,14.5 -29.15,25.56 -48.22,33.28 -19.09,7.65 -40.87,11.51 -65.49,11.51 -24.47,0 -46.4,-3.93 -65.71,-11.87 -19.37,-7.87 -35.47,-19.01 -48.43,-33.35 -12.96,-14.36 -22.73,-31.61 -29.35,-51.86 -6.63,-20.18 -9.91,-42.04 -9.91,-65.49 0,-24.04 3.42,-46.04 10.35,-66.14 6.91,-20.03 16.89,-37.07 30,-51.21 13.05,-14.05 29,-24.83 47.78,-32.26 18.72,-7.51 40.07,-11.22 63.96,-11.22zm90.02 160.83c0,-22.88 -3.7,-42.76 -11.06,-59.58 -7.43,-16.75 -18,-29.44 -31.68,-38.1 -13.7,-8.59 -29.51,-12.89 -47.28,-12.89 -12.61,0 -24.34,2.41 -35.03,7.14 -10.79,4.8 -20.03,11.73 -27.75,20.83 -7.73,9.1 -13.85,20.75 -18.36,34.89 -4.45,14.21 -6.71,30.09 -6.71,47.71 0,17.85 2.26,33.88 6.71,48.29 4.51,14.35 10.85,26.3 19.01,35.76 8.16,9.48 17.55,16.55 28.11,21.21 10.64,4.73 22.22,7.07 34.9,7.07 16.24,0 31.1,-4.08 44.71,-12.18 13.56,-8.09 24.33,-20.61 32.41,-37.58 8.02,-16.89 12.02,-37.81 12.02,-62.57zm388.22 -155.58l82.6 0c21.48,0 39.91,1.96 55.28,5.97 15.45,4 29.35,11.51 41.88,22.43 32.57,27.9 48.88,70.37 48.88,127.25 0,18.8 -1.61,35.91 -4.89,51.43 -3.27,15.51 -8.38,29.5 -15.14,41.96 -6.85,12.45 -15.59,23.6 -26.3,33.42 -8.37,7.51 -17.56,13.56 -27.53,18.07 -9.99,4.59 -20.69,7.8 -32.12,9.61 -11.44,1.83 -24.4,2.77 -38.76,2.77l-82.6 0c-11.51,0 -20.17,-1.74 -26.08,-5.23 -5.82,-3.5 -9.61,-8.38 -11.36,-14.72 -1.82,-6.35 -2.69,-14.57 -2.69,-24.62l0 -229.53c0,-13.61 3.06,-23.53 9.17,-29.64 6.13,-6.12 16.03,-9.17 29.66,-9.17zm24.54 50.25l0 212.4 48.07 0c10.5,0 18.8,-0.29 24.76,-0.87 5.98,-0.58 12.17,-1.96 18.58,-4.22 6.42,-2.34 11.95,-5.53 16.61,-9.63 21.2,-17.91 31.83,-48.79 31.83,-92.64 0,-30.89 -4.66,-54.05 -13.98,-69.42 -9.33,-15.37 -20.83,-25.13 -34.46,-29.35 -13.69,-4.15 -30.23,-6.27 -49.52,-6.27l-41.89 0zm587.05 -1.31l-142.77 0 0 76.91 131.47 0c9.7,0 16.9,2.2 21.64,6.49 4.81,4.3 7.13,10.06 7.13,17.11 0,7.07 -2.32,12.91 -6.98,17.35 -4.75,4.44 -11.95,6.7 -21.79,6.7l-131.47 0 0 89.15 147.64 0c9.99,0 17.49,2.34 22.51,6.92 5.1,4.59 7.65,10.79 7.65,18.44 0,7.36 -2.55,13.39 -7.65,17.98 -5.02,4.59 -12.52,6.92 -22.51,6.92l-172.18 0c-13.78,0 -23.67,-3.06 -29.73,-9.17 -6.05,-6.12 -9.1,-16.02 -9.1,-29.65l0 -235.28c0,-9.1 1.38,-16.53 4.08,-22.28 2.69,-5.76 6.91,-9.98 12.67,-12.6 5.75,-2.62 13.11,-3.93 22.08,-3.93l167.31 0c10.13,0 17.62,2.25 22.51,6.69 4.87,4.52 7.36,10.42 7.36,17.64 0,7.43 -2.49,13.39 -7.36,17.91 -4.89,4.44 -12.38,6.7 -22.51,6.7zm516.11 228.5l-14.94 -39.26 -127.18 0 -14.93 40.06c-5.83,15.66 -10.78,26.23 -14.93,31.68 -4.08,5.48 -10.86,8.23 -20.25,8.23 -7.94,0 -15.01,-2.9 -21.13,-8.73 -6.11,-5.82 -9.17,-12.46 -9.17,-19.82 0,-4.29 0.72,-8.73 2.12,-13.25 1.45,-4.58 3.77,-10.85 7.05,-19.01l79.99 -203.09c2.32,-5.82 5.02,-12.81 8.23,-20.97 3.2,-8.23 6.62,-15.01 10.26,-20.39 3.64,-5.4 8.37,-9.77 14.28,-13.12 5.89,-3.34 13.18,-5.02 21.86,-5.02 8.88,0 16.24,1.68 22.13,5.02 5.91,3.35 10.64,7.65 14.29,12.9 3.64,5.24 6.69,10.93 9.17,16.97 2.48,6.05 5.69,14.14 9.48,24.18l81.71 201.84c6.42,15.37 9.63,26.51 9.63,33.51 0,7.21 -2.99,13.92 -9.05,19.96 -6.04,6.05 -13.39,9.02 -21.91,9.02 -4.95,0 -9.26,-0.87 -12.82,-2.68 -3.5,-1.76 -6.49,-4.15 -8.97,-7.21 -2.39,-3.07 -4.95,-7.8 -7.72,-14.07 -2.83,-6.33 -5.17,-11.94 -7.2,-16.75zm-125.43 -86.9l93.44 0 -47.13 -128.93 -46.31 128.93zm525.63 -138.1l-69.11 0 0 227.12c0,13.11 -2.92,22.79 -8.83,29.13 -5.82,6.34 -13.4,9.46 -22.64,9.46 -9.41,0 -17.13,-3.19 -23.02,-9.6 -5.91,-6.42 -8.88,-16.03 -8.88,-28.99l0 -227.12 -69.14 0c-10.85,0 -18.86,-2.41 -24.1,-7.14 -5.24,-4.8 -7.94,-11.15 -7.94,-19.01 0,-8.09 2.77,-14.49 8.23,-19.24 5.45,-4.73 13.39,-7.05 23.81,-7.05l201.62 0c11,0 19.09,2.4 24.49,7.27 5.31,4.89 8.01,11.22 8.01,19.02 0,7.86 -2.77,14.21 -8.17,19.01 -5.39,4.73 -13.47,7.14 -24.33,7.14zm397.23 -3.5l-142.76 0 0 76.91 131.47 0c9.69,0 16.89,2.2 21.64,6.49 4.8,4.3 7.13,10.06 7.13,17.11 0,7.07 -2.33,12.91 -6.99,17.35 -4.74,4.44 -11.94,6.7 -21.78,6.7l-131.47 0 0 89.15 147.64 0c9.98,0 17.49,2.34 22.51,6.92 5.09,4.59 7.65,10.79 7.65,18.44 0,7.36 -2.56,13.39 -7.65,17.98 -5.02,4.59 -12.53,6.92 -22.51,6.92l-172.19 0c-13.77,0 -23.67,-3.06 -29.72,-9.17 -6.05,-6.12 -9.1,-16.02 -9.1,-29.65l0 -235.28c0,-9.1 1.38,-16.53 4.08,-22.28 2.68,-5.76 6.91,-9.98 12.67,-12.6 5.74,-2.62 13.1,-3.93 22.07,-3.93l167.31 0c10.13,0 17.62,2.25 22.51,6.69 4.88,4.52 7.36,10.42 7.36,17.64 0,7.43 -2.48,13.39 -7.36,17.91 -4.89,4.44 -12.38,6.7 -22.51,6.7zm289.36 -16.17l121.79 184.44 0 -186.19c0,-12.09 2.61,-21.12 7.79,-27.16 5.17,-6.05 12.16,-9.11 20.97,-9.11 9.03,0 16.25,2.99 21.49,9.02 5.25,6.06 7.86,15.16 7.86,27.25l0 245.99c0,27.46 -11.36,41.14 -34.08,41.14 -5.69,0 -10.78,-0.79 -15.37,-2.46 -4.51,-1.61 -8.81,-4.23 -12.74,-7.72 -4.01,-3.58 -7.65,-7.73 -11.08,-12.53 -3.42,-4.75 -6.85,-9.62 -10.27,-14.57l-118.8 -182.1 0 183.11c0,11.95 -2.77,20.98 -8.3,27.1 -5.62,6.13 -12.75,9.17 -21.43,9.17 -8.95,0 -16.17,-3.04 -21.55,-9.24 -5.46,-6.2 -8.16,-15.23 -8.16,-27.03l0 -241.24c0,-10.28 1.16,-18.29 3.43,-24.11 2.68,-6.41 7.21,-11.65 13.47,-15.73 6.27,-4.01 13.03,-6.05 20.24,-6.05 5.77,0 10.64,0.94 14.65,2.77 4.08,1.89 7.65,4.37 10.71,7.5 3.06,3.14 6.18,7.14 9.39,12.17 3.21,4.94 6.56,10.11 9.99,15.58zm409.82 -32.77l82.6 0c21.48,0 39.92,1.96 55.29,5.97 15.44,4 29.35,11.51 41.87,22.43 32.57,27.9 48.89,70.37 48.89,127.25 0,18.8 -1.61,35.91 -4.89,51.43 -3.27,15.51 -8.38,29.5 -15.14,41.96 -6.85,12.45 -15.59,23.6 -26.3,33.42 -8.38,7.51 -17.57,13.56 -27.54,18.07 -9.98,4.59 -20.68,7.8 -32.12,9.61 -11.43,1.83 -24.4,2.77 -38.75,2.77l-82.6 0c-11.51,0 -20.18,-1.74 -26.08,-5.23 -5.82,-3.5 -9.61,-8.38 -11.37,-14.72 -1.81,-6.35 -2.68,-14.57 -2.68,-24.62l0 -229.53c0,-13.61 3.06,-23.53 9.17,-29.64 6.13,-6.12 16.02,-9.17 29.65,-9.17zm24.55 50.25l0 212.4 48.07 0c10.49,0 18.79,-0.29 24.76,-0.87 5.98,-0.58 12.16,-1.96 18.58,-4.22 6.41,-2.34 11.94,-5.53 16.6,-9.63 21.21,-17.91 31.83,-48.79 31.83,-92.64 0,-30.89 -4.66,-54.05 -13.98,-69.42 -9.33,-15.37 -20.82,-25.13 -34.45,-29.35 -13.69,-4.15 -30.24,-6.27 -49.53,-6.27l-41.88 0zm383.52 229.31l0 -246.42c0,-12.82 2.92,-22.37 8.75,-28.77 5.82,-6.42 13.4,-9.62 22.65,-9.62 9.47,0 17.2,3.13 23.09,9.47 5.91,6.33 8.88,15.96 8.88,28.92l0 246.42c0,12.96 -2.97,22.57 -8.88,28.99 -5.89,6.41 -13.62,9.6 -23.09,9.6 -9.1,0 -16.61,-3.19 -22.5,-9.68 -5.91,-6.48 -8.9,-16.09 -8.9,-28.91zm361.12 -13.85l-50.19 -199.29 0 215.9c0,11.94 -2.7,20.91 -8.01,26.88 -5.33,5.98 -12.38,8.95 -21.14,8.95 -8.52,0 -15.51,-2.97 -20.9,-8.88 -5.38,-5.89 -8.08,-14.86 -8.08,-26.95l0 -247.51c0,-13.69 3.57,-22.86 10.64,-27.68 7.14,-4.73 16.75,-7.13 28.76,-7.13l19.67 0c11.8,0 20.32,1.09 25.65,3.19 5.31,2.12 9.32,5.98 11.87,11.51 2.54,5.55 5.46,14.58 8.74,27.1l45.44 171.47 45.46 -171.47c3.28,-12.52 6.18,-21.55 8.74,-27.1 2.55,-5.53 6.49,-9.39 11.8,-11.51 5.31,-2.1 13.92,-3.19 25.72,-3.19l19.59 0c12.09,0 21.7,2.4 28.84,7.13 7.07,4.82 10.64,13.99 10.64,27.68l0 247.51c0,11.94 -2.7,20.91 -8.01,26.88 -5.33,5.98 -12.47,8.95 -21.35,8.95 -8.38,0 -15.3,-2.97 -20.68,-8.95 -5.39,-5.97 -8.09,-14.94 -8.09,-26.88l0 -215.9 -50.19 199.29c-3.28,12.89 -5.89,22.44 -8.01,28.48 -2.03,5.98 -5.82,11.51 -11.37,16.46 -5.6,5.04 -13.25,7.5 -23.09,7.5 -7.43,0 -13.68,-1.59 -18.78,-4.8 -5.11,-3.21 -9.11,-7.29 -11.96,-12.24 -2.83,-5.02 -5.09,-10.49 -6.69,-16.53 -1.68,-6.05 -3.35,-12.38 -5.02,-18.87zm585.72 -216.77l-142.76 0 0 76.91 131.47 0c9.7,0 16.9,2.2 21.64,6.49 4.81,4.3 7.13,10.06 7.13,17.11 0,7.07 -2.32,12.91 -6.98,17.35 -4.75,4.44 -11.95,6.7 -21.79,6.7l-131.47 0 0 89.15 147.64 0c9.99,0 17.49,2.34 22.51,6.92 5.1,4.59 7.65,10.79 7.65,18.44 0,7.36 -2.55,13.39 -7.65,17.98 -5.02,4.59 -12.52,6.92 -22.51,6.92l-172.18 0c-13.78,0 -23.68,-3.06 -29.73,-9.17 -6.05,-6.12 -9.1,-16.02 -9.1,-29.65l0 -235.28c0,-9.1 1.38,-16.53 4.08,-22.28 2.68,-5.76 6.91,-9.98 12.67,-12.6 5.75,-2.62 13.11,-3.93 22.08,-3.93l167.3 0c10.13,0 17.62,2.25 22.51,6.69 4.88,4.52 7.36,10.42 7.36,17.64 0,7.43 -2.48,13.39 -7.36,17.91 -4.89,4.44 -12.38,6.7 -22.51,6.7zm289.36 -16.17l121.79 184.44 0 -186.19c0,-12.09 2.61,-21.12 7.79,-27.16 5.17,-6.05 12.17,-9.11 20.98,-9.11 9.02,0 16.24,2.99 21.48,9.02 5.25,6.06 7.86,15.16 7.86,27.25l0 245.99c0,27.46 -11.36,41.14 -34.07,41.14 -5.69,0 -10.79,-0.79 -15.38,-2.46 -4.51,-1.61 -8.81,-4.23 -12.74,-7.72 -4,-3.58 -7.65,-7.73 -11.07,-12.53 -3.43,-4.75 -6.85,-9.62 -10.28,-14.57l-118.8 -182.1 0 183.11c0,11.95 -2.77,20.98 -8.3,27.1 -5.62,6.13 -12.74,9.17 -21.42,9.17 -8.96,0 -16.17,-3.04 -21.56,-9.24 -5.46,-6.2 -8.16,-15.23 -8.16,-27.03l0 -241.24c0,-10.28 1.17,-18.29 3.43,-24.11 2.69,-6.41 7.21,-11.65 13.47,-15.73 6.27,-4.01 13.03,-6.05 20.25,-6.05 5.76,0 10.64,0.94 14.64,2.77 4.08,1.89 7.65,4.37 10.71,7.5 3.07,3.14 6.19,7.14 9.39,12.17 3.21,4.94 6.56,10.11 9.99,15.58zm573.85 19.67l-69.11 0 0 227.12c0,13.11 -2.92,22.79 -8.83,29.13 -5.82,6.34 -13.4,9.46 -22.64,9.46 -9.41,0 -17.13,-3.19 -23.02,-9.6 -5.91,-6.42 -8.88,-16.03 -8.88,-28.99l0 -227.12 -69.14 0c-10.85,0 -18.86,-2.41 -24.1,-7.14 -5.24,-4.8 -7.94,-11.15 -7.94,-19.01 0,-8.09 2.77,-14.49 8.23,-19.24 5.45,-4.73 13.39,-7.05 23.81,-7.05l201.62 0c11,0 19.09,2.4 24.49,7.27 5.31,4.89 8.01,11.22 8.01,19.02 0,7.86 -2.77,14.21 -8.17,19.01 -5.39,4.73 -13.47,7.14 -24.33,7.14zm323.02 -57.69c32.48,0 60.3,6.56 83.54,19.74 23.24,13.12 40.86,31.83 52.81,56.08 11.94,24.27 17.92,52.74 17.92,85.44 0,24.19 -3.28,46.19 -9.84,65.93 -6.55,19.81 -16.31,36.92 -29.42,51.42 -13.11,14.5 -29.15,25.56 -48.22,33.28 -19.08,7.65 -40.87,11.51 -65.49,11.51 -24.47,0 -46.4,-3.93 -65.7,-11.87 -19.38,-7.87 -35.47,-19.01 -48.44,-33.35 -12.96,-14.36 -22.73,-31.61 -29.34,-51.86 -6.64,-20.18 -9.92,-42.04 -9.92,-65.49 0,-24.04 3.43,-46.04 10.35,-66.14 6.91,-20.03 16.9,-37.07 30,-51.21 13.05,-14.05 29,-24.83 47.78,-32.26 18.73,-7.51 40.08,-11.22 63.97,-11.22zm90.02 160.83c0,-22.88 -3.71,-42.76 -11.06,-59.58 -7.44,-16.75 -18,-29.44 -31.69,-38.1 -13.7,-8.59 -29.51,-12.89 -47.27,-12.89 -12.61,0 -24.34,2.41 -35.04,7.14 -10.78,4.8 -20.03,11.73 -27.75,20.83 -7.72,9.1 -13.85,20.75 -18.36,34.89 -4.44,14.21 -6.71,30.09 -6.71,47.71 0,17.85 2.27,33.88 6.71,48.29 4.51,14.35 10.86,26.3 19.01,35.76 8.16,9.48 17.55,16.55 28.12,21.21 10.64,4.73 22.22,7.07 34.89,7.07 16.24,0 31.1,-4.08 44.72,-12.18 13.55,-8.09 24.32,-20.61 32.41,-37.58 8.01,-16.89 12.02,-37.81 12.02,-62.57zm477.43 63.51c0,18.87 -4.88,35.84 -14.65,50.92 -9.68,15.08 -23.96,26.88 -42.75,35.4 -18.79,8.52 -41.08,12.74 -66.8,12.74 -30.87,0 -56.37,-5.82 -76.4,-17.4 -14.21,-8.37 -25.71,-19.59 -34.61,-33.58 -8.88,-13.98 -13.32,-27.61 -13.32,-40.86 0,-7.65 2.7,-14.21 8.01,-19.74 5.31,-5.46 12.09,-8.16 20.32,-8.16 6.71,0 12.31,2.11 16.9,6.42 4.67,4.22 8.6,10.55 11.87,19 3.93,9.91 8.32,18.28 12.9,24.92 4.66,6.69 11.15,12.23 19.52,16.6 8.45,4.3 19.45,6.49 33.14,6.49 18.72,0 34.02,-4.38 45.75,-13.12 11.73,-8.74 17.62,-19.67 17.62,-32.78 0,-10.42 -3.13,-18.86 -9.46,-25.28 -6.35,-6.47 -14.58,-11.42 -24.62,-14.85 -9.98,-3.42 -23.45,-7.07 -40.22,-10.93 -22.42,-5.24 -41.29,-11.43 -56.37,-18.43 -15.15,-7.07 -27.17,-16.68 -36.06,-28.84 -8.88,-12.16 -13.33,-27.24 -13.33,-45.39 0,-17.18 4.67,-32.48 14.06,-45.88 9.39,-13.33 23.02,-23.6 40.79,-30.81 17.78,-7.21 38.68,-10.78 62.71,-10.78 19.16,0 35.77,2.41 49.83,7.14 13.99,4.8 25.63,11.14 34.89,19.01 9.17,7.87 15.95,16.17 20.25,24.83 4.22,8.67 6.41,17.2 6.41,25.43 0,7.51 -2.69,14.34 -8.01,20.4 -5.32,6.03 -12.03,9.02 -19.97,9.02 -7.27,0 -12.74,-1.81 -16.53,-5.38 -3.79,-3.64 -7.87,-9.62 -12.24,-17.85 -5.74,-11.8 -12.52,-21.05 -20.53,-27.68 -7.94,-6.63 -20.76,-9.9 -38.47,-9.9 -16.31,0 -29.56,3.57 -39.55,10.77 -10.04,7.21 -15.08,15.81 -15.08,25.94 0,6.27 1.68,11.65 5.11,16.24 3.41,4.51 8.16,8.45 14.12,11.73 5.98,3.28 12.02,5.83 18.15,7.72 6.11,1.81 16.24,4.51 30.29,8.08 17.63,4.15 33.66,8.67 47.94,13.7 14.27,4.95 26.43,10.99 36.49,18.13 10.04,7.07 17.83,16.1 23.45,26.95 5.6,10.93 8.45,24.26 8.45,40.06z"/>
    </g>
   </g>
  </g>
 </g>
</svg>
